<svg xmlns="http://www.w3.org/2000/svg" width="215" height="46" viewBox="0 0 215 46" fill="none"><path d="M192.286 19.2524L203.401 0L214.516 19.2524H192.286Z" fill="white"></path><path d="M208.214 23.6914L203.453 31.9419L198.688 23.6914H208.214Z" fill="#03D777"></path><path d="M91.013 38.5014H85.3526V28.2474C85.3526 27.9044 85.3526 27.5613 85.3217 27.2183C85.1261 25.1188 84.0112 24.0038 82.1553 24.0416C80.2993 24.0793 79.0677 25.3006 79.0334 27.3692C78.982 30.7003 79.0094 34.028 79.006 37.3556V38.4603H73.2735C73.2735 38.1824 73.2323 37.8839 73.2323 37.5855C73.2323 34.3676 73.2323 31.1531 73.2323 27.9387C73.2413 27.4 73.186 26.8622 73.0677 26.3366C72.9461 25.6683 72.5857 25.067 72.0537 24.6447C71.5216 24.2225 70.8541 24.0081 70.1757 24.0416C68.5873 24.0416 67.4312 24.8683 67.0882 26.3332C66.9664 26.8584 66.9077 27.3962 66.9132 27.9353C66.9132 31.1223 66.9132 34.3093 66.9132 37.4963V38.4808H61.1602V19.3451H66.8446V21.6299C68.3952 19.6744 70.2306 18.8854 72.4365 18.9472C73.4956 18.9392 74.5386 19.2078 75.4621 19.7264C76.3857 20.2451 77.1579 20.9958 77.7024 21.9043L78.5257 21.0226C81.1364 18.2507 87.6305 17.8356 89.8466 22.0518C90.5167 23.3029 90.9099 24.6835 90.9993 26.0999C91.164 30.1068 91.0816 34.1206 91.0919 38.1309C91.0769 38.2566 91.0505 38.3806 91.013 38.5014Z" fill="white"></path><path d="M6.1953 36.5185V45.5066H0.483398V19.369H6.16443V21.4274C6.72361 20.9574 7.13528 20.5423 7.6087 20.2198C10.408 18.3262 14.5282 18.5594 17.4887 20.755C22.7375 24.6418 22.5283 33.8152 17.0531 37.3761C14.2537 39.1978 11.2485 39.4997 8.19876 37.9628C7.50578 37.606 6.92258 37.0502 6.1953 36.5185ZM6.06151 28.9403C6.06151 31.7637 8.05124 33.7877 10.8197 33.8015C13.5882 33.8152 15.5779 31.7568 15.5779 28.9403C15.5779 26.1238 13.6019 24.0552 10.8609 24.0484C8.03066 24.0381 6.05122 26.0724 6.06151 28.9403Z" fill="white"></path><path d="M166.181 21.3007V19.3487H171.862V38.481H166.181V36.3643C165.497 37.1739 164.643 37.8216 163.679 38.2606C162.715 38.6996 161.665 38.919 160.606 38.903C156.712 38.903 153.796 37.1877 152.102 33.6473C150.06 29.4003 151.127 23.7913 154.537 21.064C157.426 18.7552 160.651 18.2475 164.067 19.8427C164.808 20.1652 165.416 20.7484 166.181 21.3007ZM166.304 28.944C166.304 26.0589 164.345 24.0452 161.519 24.0486C158.798 24.0486 156.846 26.0452 156.826 28.8514C156.805 31.7125 158.74 33.7743 161.467 33.7983C164.294 33.8257 166.304 31.8085 166.315 28.944H166.304Z" fill="white"></path><path d="M114.18 28.8784C114.18 34.6109 109.854 38.8785 103.978 38.9094C98.1013 38.9403 93.6518 34.6692 93.6553 28.9161C93.6587 23.1631 97.9984 18.9675 103.899 18.9435C109.8 18.9194 114.163 23.1528 114.18 28.8784ZM103.923 33.7155C106.568 33.7155 108.503 31.6812 108.503 28.9127C108.503 26.1442 106.537 24.1099 103.913 24.1099C101.288 24.1099 99.3329 26.1682 99.3363 28.9127C99.3397 31.6572 101.278 33.7189 103.923 33.7155Z" fill="white"></path><path d="M58.5216 28.9126C58.5216 34.6589 54.1957 38.8922 48.3054 38.9059C42.4151 38.9196 38.0137 34.6417 38.0137 28.8818C38.0137 23.1218 42.3911 18.9331 48.2848 18.9331C54.1785 18.9331 58.5216 23.163 58.5216 28.9126ZM43.729 28.8646C43.729 31.6948 45.5815 33.6949 48.2505 33.7154C50.9195 33.736 52.8406 31.7189 52.844 28.9126C52.8475 26.1064 50.9126 24.0858 48.2642 24.1098C45.6158 24.1339 43.7427 26.1099 43.729 28.8646Z" fill="white"></path><path d="M130.324 31.4994L134.345 34.1067C132.917 37.1084 128.938 39.5956 124.176 38.7448C119.171 37.8563 115.943 34.1547 115.819 29.0912C115.689 24.2163 118.746 20.3226 123.573 19.218C128.06 18.1888 132.691 20.0962 134.375 23.7052C133.044 24.5663 131.71 25.4205 130.303 26.3502C129.109 24.875 127.627 23.9488 125.665 24.134C125.078 24.175 124.505 24.3337 123.981 24.6007C123.456 24.8677 122.991 25.2375 122.612 25.6881C120.962 27.6195 121.178 30.9231 123.058 32.5904C125.106 34.4017 127.874 34.0175 130.324 31.4994Z" fill="white"></path><path d="M187.165 23.8491H183.213C183.213 24.2265 183.168 24.5353 183.168 24.8269C183.168 26.9058 183.168 28.9824 183.168 31.0568C183.168 33.0877 183.988 33.8321 186.026 33.6469C186.417 33.6126 186.801 33.5336 187.299 33.4616C187.299 34.8338 187.326 36.1786 187.271 37.5028C187.23 37.6466 187.157 37.7791 187.057 37.8903C186.957 38.0015 186.833 38.0884 186.695 38.1443C184.215 39.074 181.755 39.1118 179.491 37.5783C177.981 36.5491 177.47 34.9265 177.432 33.1837C177.381 30.4393 177.408 27.6639 177.405 24.9058V23.8766H174.585V19.3002H177.401V14.4082H183.124V19.2796H187.155L187.165 23.8491Z" fill="white"></path><path d="M36.9777 24.4258C36.0651 24.4704 35.2624 24.4258 34.4871 24.5562C31.6809 24.9747 29.8078 26.985 29.6843 29.8289C29.5848 32.3847 29.6397 34.9474 29.6294 37.5066V38.4877H23.9209V19.3485H29.6019V23.6471L29.7769 23.6779C29.9793 23.2079 30.1611 22.7277 30.3807 22.268C31.5025 19.9489 33.4682 18.8065 36.0445 18.9506C36.6895 18.9849 37.0223 19.1496 36.9948 19.894C36.9399 21.4172 36.9777 22.9438 36.9777 24.4258Z" fill="white"></path><path d="M150.078 24.3778C148.956 24.4738 147.947 24.4567 146.99 24.6659C145.82 24.9176 144.77 25.559 144.013 26.4851C143.255 27.4112 142.834 28.5672 142.819 29.7638C142.709 32.3195 142.764 34.8822 142.747 37.4414V38.4946H137.052V19.3657H142.74V23.5853L142.911 23.6127C143.117 23.1325 143.299 22.6419 143.532 22.1753C144.671 19.8906 146.719 18.7448 149.258 18.954C149.844 18.9986 150.112 19.1804 150.095 19.8254C150.057 21.3589 150.078 22.8889 150.078 24.3778Z" fill="white"></path></svg>