<svg xmlns="http://www.w3.org/2000/svg" xmlns:xlink="http://www.w3.org/1999/xlink" width="2000" zoomAndPan="magnify" viewBox="0 0 1500 1025.999948" height="1368" preserveAspectRatio="xMidYMid meet" version="1.0"><defs><g/><clipPath id="cfc64638c6"><rect x="0" width="1423" y="0" height="262"/></clipPath></defs><g transform="matrix(1, 0, 0, 1, 38, 764)"><g clip-path="url(#cfc64638c6)"><g fill="#1e1e1e" fill-opacity="1"><g transform="translate(0.662896, 208.77054)"><g><path d="M 142.75 -43.125 C 142.75 -34.8125 140.738281 -27.40625 136.71875 -20.90625 C 132.707031 -14.414062 126.867188 -9.304688 119.203125 -5.578125 C 111.546875 -1.859375 102.171875 0 91.078125 0 L 12.046875 0 L 12.046875 -155.890625 L 86.703125 -155.890625 C 103.335938 -155.890625 116.109375 -152.09375 125.015625 -144.5 C 133.921875 -136.90625 138.375 -126.832031 138.375 -114.28125 C 138.375 -105.820312 136.21875 -98.523438 131.90625 -92.390625 C 127.601562 -86.265625 121.070312 -82.175781 112.3125 -80.125 C 122.53125 -78.226562 130.15625 -73.921875 135.1875 -67.203125 C 140.226562 -60.492188 142.75 -52.46875 142.75 -43.125 Z M 112.96875 -45.3125 C 112.96875 -52.320312 110.847656 -57.941406 106.609375 -62.171875 C 102.378906 -66.410156 96.109375 -68.53125 87.796875 -68.53125 L 41.8125 -68.53125 L 41.8125 -22.328125 L 87.796875 -22.328125 C 96.109375 -22.328125 102.378906 -24.40625 106.609375 -28.5625 C 110.847656 -32.726562 112.96875 -38.3125 112.96875 -45.3125 Z M 108.59375 -111.875 C 108.59375 -126.320312 100.203125 -133.546875 83.421875 -133.546875 L 41.8125 -133.546875 L 41.8125 -90.421875 L 83.421875 -90.421875 C 100.203125 -90.421875 108.59375 -97.570312 108.59375 -111.875 Z M 108.59375 -111.875 "/></g></g></g><g fill="#1e1e1e" fill-opacity="1"><g transform="translate(149.309501, 208.77054)"><g><path d="M 38.53125 0 L 10.296875 0 L 10.296875 -112.96875 L 37.21875 -112.96875 L 37.21875 -87.796875 C 40.132812 -97.722656 44.144531 -104.65625 49.25 -108.59375 C 54.363281 -112.53125 60.863281 -114.5 68.75 -114.5 C 70.351562 -114.5 72.140625 -114.316406 74.109375 -113.953125 C 76.078125 -113.585938 77.71875 -113.257812 79.03125 -112.96875 L 79.03125 -88.234375 L 67.4375 -88.453125 C 58.820312 -88.453125 51.847656 -85.347656 46.515625 -79.140625 C 41.191406 -72.941406 38.53125 -64.078125 38.53125 -52.546875 Z M 38.53125 0 "/></g></g></g><g fill="#1e1e1e" fill-opacity="1"><g transform="translate(232.717976, 208.77054)"><g><path d="M 38.53125 0 L 10.296875 0 L 10.296875 -112.96875 L 38.53125 -112.96875 Z M 24.515625 -129.828125 C 19.265625 -129.828125 15.210938 -131.25 12.359375 -134.09375 C 9.515625 -136.945312 8.09375 -140.414062 8.09375 -144.5 C 8.09375 -148.726562 9.515625 -152.226562 12.359375 -155 C 15.210938 -157.78125 19.265625 -159.171875 24.515625 -159.171875 C 29.773438 -159.171875 33.789062 -157.78125 36.5625 -155 C 39.332031 -152.226562 40.71875 -148.726562 40.71875 -144.5 C 40.71875 -140.414062 39.332031 -136.945312 36.5625 -134.09375 C 33.789062 -131.25 29.773438 -129.828125 24.515625 -129.828125 Z M 24.515625 -129.828125 "/></g></g></g><g fill="#1e1e1e" fill-opacity="1"><g transform="translate(281.537127, 208.77054)"><g><path d="M 55.609375 2.1875 C 40.429688 2.1875 28.351562 -2.957031 19.375 -13.25 C 10.394531 -23.539062 5.90625 -37.953125 5.90625 -56.484375 C 5.90625 -75.023438 10.394531 -89.4375 19.375 -99.71875 C 28.351562 -110.007812 40.429688 -115.15625 55.609375 -115.15625 C 64.222656 -115.15625 71.375 -113.476562 77.0625 -110.125 C 82.757812 -106.769531 87.210938 -102.023438 90.421875 -95.890625 L 90.421875 -155.890625 L 118.671875 -155.890625 L 118.671875 0 L 91.734375 0 L 91.734375 -19.265625 C 88.671875 -12.703125 84.253906 -7.484375 78.484375 -3.609375 C 72.722656 0.253906 65.097656 2.1875 55.609375 2.1875 Z M 62.171875 -19.265625 C 70.640625 -19.265625 77.460938 -22.253906 82.640625 -28.234375 C 87.828125 -34.222656 90.421875 -43.640625 90.421875 -56.484375 C 90.421875 -69.472656 87.828125 -78.921875 82.640625 -84.828125 C 77.460938 -90.742188 70.640625 -93.703125 62.171875 -93.703125 C 53.859375 -93.703125 47.109375 -90.742188 41.921875 -84.828125 C 36.742188 -78.921875 34.15625 -69.472656 34.15625 -56.484375 C 34.15625 -43.640625 36.742188 -34.222656 41.921875 -28.234375 C 47.109375 -22.253906 53.859375 -19.265625 62.171875 -19.265625 Z M 62.171875 -19.265625 "/></g></g></g><g fill="#1e1e1e" fill-opacity="1"><g transform="translate(410.480912, 208.77054)"><g><path d="M 55.609375 -4.375 C 45.535156 -4.375 36.773438 -6.671875 29.328125 -11.265625 C 21.890625 -15.867188 16.125 -22.328125 12.03125 -30.640625 C 7.945312 -38.960938 5.90625 -48.671875 5.90625 -59.765625 C 5.90625 -70.859375 7.945312 -80.566406 12.03125 -88.890625 C 16.125 -97.210938 21.890625 -103.671875 29.328125 -108.265625 C 36.773438 -112.859375 45.535156 -115.15625 55.609375 -115.15625 C 65.097656 -115.15625 72.722656 -113.222656 78.484375 -109.359375 C 84.253906 -105.492188 88.671875 -100.273438 91.734375 -93.703125 L 91.734375 -112.96875 L 118.671875 -112.96875 L 118.671875 -9.203125 C 118.671875 8.316406 114 21.742188 104.65625 31.078125 C 95.3125 40.421875 81.367188 45.09375 62.828125 45.09375 C 45.898438 45.09375 33.203125 41.367188 24.734375 33.921875 C 16.273438 26.484375 12.046875 16.707031 12.046875 4.59375 L 38.53125 4.59375 C 40.28125 19.1875 48.820312 26.484375 64.15625 26.484375 C 72.46875 26.484375 78.921875 24.1875 83.515625 19.59375 C 88.117188 15 90.421875 8.03125 90.421875 -1.3125 L 90.421875 -23.640625 C 87.210938 -17.515625 82.757812 -12.769531 77.0625 -9.40625 C 71.375 -6.050781 64.222656 -4.375 55.609375 -4.375 Z M 62.171875 -24.515625 C 70.640625 -24.515625 77.460938 -27.46875 82.640625 -33.375 C 87.828125 -39.289062 90.421875 -48.085938 90.421875 -59.765625 C 90.421875 -71.441406 87.828125 -80.234375 82.640625 -86.140625 C 77.460938 -92.054688 70.640625 -95.015625 62.171875 -95.015625 C 53.859375 -95.015625 47.109375 -92.054688 41.921875 -86.140625 C 36.742188 -80.234375 34.15625 -71.441406 34.15625 -59.765625 C 34.15625 -48.085938 36.742188 -39.289062 41.921875 -33.375 C 47.109375 -27.46875 53.859375 -24.515625 62.171875 -24.515625 Z M 62.171875 -24.515625 "/></g></g></g><g fill="#1e1e1e" fill-opacity="1"><g transform="translate(539.424755, 208.77054)"><g><path d="M 38.53125 0 L 10.296875 0 L 10.296875 -112.96875 L 38.53125 -112.96875 Z M 24.515625 -129.828125 C 19.265625 -129.828125 15.210938 -131.25 12.359375 -134.09375 C 9.515625 -136.945312 8.09375 -140.414062 8.09375 -144.5 C 8.09375 -148.726562 9.515625 -152.226562 12.359375 -155 C 15.210938 -157.78125 19.265625 -159.171875 24.515625 -159.171875 C 29.773438 -159.171875 33.789062 -157.78125 36.5625 -155 C 39.332031 -152.226562 40.71875 -148.726562 40.71875 -144.5 C 40.71875 -140.414062 39.332031 -136.945312 36.5625 -134.09375 C 33.789062 -131.25 29.773438 -129.828125 24.515625 -129.828125 Z M 24.515625 -129.828125 "/></g></g></g><g fill="#1e1e1e" fill-opacity="1"><g transform="translate(588.243876, 208.77054)"><g><path d="M 110.5625 0 L 82.328125 0 L 82.328125 -69.1875 C 82.328125 -76.914062 80.828125 -82.675781 77.828125 -86.46875 C 74.835938 -90.269531 69.910156 -92.171875 63.046875 -92.171875 C 55.609375 -92.171875 49.660156 -89.613281 45.203125 -84.5 C 40.753906 -79.394531 38.53125 -72.242188 38.53125 -63.046875 L 38.53125 0 L 10.296875 0 L 10.296875 -112.96875 L 37.21875 -112.96875 L 37.21875 -94.578125 C 40.28125 -100.566406 44.507812 -105.492188 49.90625 -109.359375 C 55.3125 -113.222656 62.613281 -115.15625 71.8125 -115.15625 C 97.644531 -115.15625 110.5625 -101.65625 110.5625 -74.65625 Z M 110.5625 0 "/></g></g></g><g fill="#1e1e1e" fill-opacity="1"><g transform="translate(709.087647, 208.77054)"><g><path d="M 55.609375 -4.375 C 45.535156 -4.375 36.773438 -6.671875 29.328125 -11.265625 C 21.890625 -15.867188 16.125 -22.328125 12.03125 -30.640625 C 7.945312 -38.960938 5.90625 -48.671875 5.90625 -59.765625 C 5.90625 -70.859375 7.945312 -80.566406 12.03125 -88.890625 C 16.125 -97.210938 21.890625 -103.671875 29.328125 -108.265625 C 36.773438 -112.859375 45.535156 -115.15625 55.609375 -115.15625 C 65.097656 -115.15625 72.722656 -113.222656 78.484375 -109.359375 C 84.253906 -105.492188 88.671875 -100.273438 91.734375 -93.703125 L 91.734375 -112.96875 L 118.671875 -112.96875 L 118.671875 -9.203125 C 118.671875 8.316406 114 21.742188 104.65625 31.078125 C 95.3125 40.421875 81.367188 45.09375 62.828125 45.09375 C 45.898438 45.09375 33.203125 41.367188 24.734375 33.921875 C 16.273438 26.484375 12.046875 16.707031 12.046875 4.59375 L 38.53125 4.59375 C 40.28125 19.1875 48.820312 26.484375 64.15625 26.484375 C 72.46875 26.484375 78.921875 24.1875 83.515625 19.59375 C 88.117188 15 90.421875 8.03125 90.421875 -1.3125 L 90.421875 -23.640625 C 87.210938 -17.515625 82.757812 -12.769531 77.0625 -9.40625 C 71.375 -6.050781 64.222656 -4.375 55.609375 -4.375 Z M 62.171875 -24.515625 C 70.640625 -24.515625 77.460938 -27.46875 82.640625 -33.375 C 87.828125 -39.289062 90.421875 -48.085938 90.421875 -59.765625 C 90.421875 -71.441406 87.828125 -80.234375 82.640625 -86.140625 C 77.460938 -92.054688 70.640625 -95.015625 62.171875 -95.015625 C 53.859375 -95.015625 47.109375 -92.054688 41.921875 -86.140625 C 36.742188 -80.234375 34.15625 -71.441406 34.15625 -59.765625 C 34.15625 -48.085938 36.742188 -39.289062 41.921875 -33.375 C 47.109375 -27.46875 53.859375 -24.515625 62.171875 -24.515625 Z M 62.171875 -24.515625 "/></g></g></g><g fill="#1e1e1e" fill-opacity="1"><g transform="translate(838.031433, 208.77054)"><g/></g></g><g fill="#1e1e1e" fill-opacity="1"><g transform="translate(892.761429, 208.77054)"><g><path d="M 80.34375 2.1875 C 64.289062 2.1875 50.71875 -1.203125 39.625 -7.984375 C 28.53125 -14.773438 20.132812 -24.191406 14.4375 -36.234375 C 8.75 -48.273438 5.90625 -62.175781 5.90625 -77.9375 C 5.90625 -93.851562 8.894531 -107.796875 14.875 -119.765625 C 20.863281 -131.734375 29.625 -141.109375 41.15625 -147.890625 C 52.6875 -154.679688 66.703125 -158.078125 83.203125 -158.078125 C 98.523438 -158.078125 111.40625 -155.484375 121.84375 -150.296875 C 132.28125 -145.117188 140.160156 -138.367188 145.484375 -130.046875 C 150.804688 -121.722656 153.46875 -112.894531 153.46875 -103.5625 L 126.765625 -103.5625 C 124.867188 -112.019531 120.269531 -119.164062 112.96875 -125 C 105.675781 -130.84375 95.753906 -133.765625 83.203125 -133.765625 C 67.578125 -133.765625 55.75 -128.945312 47.71875 -119.3125 C 39.695312 -109.6875 35.6875 -95.894531 35.6875 -77.9375 C 35.6875 -59.988281 39.695312 -46.195312 47.71875 -36.5625 C 55.75 -26.925781 67.578125 -22.109375 83.203125 -22.109375 C 97.796875 -22.109375 108.484375 -25.9375 115.265625 -33.59375 C 122.054688 -41.257812 125.890625 -51.59375 126.765625 -64.59375 L 87.359375 -64.59375 L 87.359375 -84.953125 L 155 -84.953125 L 155 0 L 133.328125 0 L 130.703125 -26.265625 C 127.347656 -17.222656 121.617188 -10.21875 113.515625 -5.25 C 105.421875 -0.289062 94.363281 2.1875 80.34375 2.1875 Z M 80.34375 2.1875 "/></g></g></g><g fill="#1e1e1e" fill-opacity="1"><g transform="translate(1057.608072, 208.77054)"><g><path d="M 46.640625 2.1875 C 33.347656 2.1875 23.234375 -0.910156 16.296875 -7.109375 C 9.367188 -13.316406 5.90625 -21.601562 5.90625 -31.96875 C 5.90625 -40.570312 8.820312 -48.007812 14.65625 -54.28125 C 20.5 -60.5625 30.5 -64.21875 44.65625 -65.25 L 67.65625 -67.21875 C 73.34375 -67.800781 77.207031 -68.894531 79.25 -70.5 C 81.300781 -72.101562 82.328125 -74.363281 82.328125 -77.28125 C 82.328125 -82.832031 80.609375 -87.175781 77.171875 -90.3125 C 73.742188 -93.445312 68.523438 -95.015625 61.515625 -95.015625 C 48.234375 -95.015625 41.082031 -89.101562 40.0625 -77.28125 L 12.046875 -77.28125 C 12.046875 -88.8125 15.910156 -98.003906 23.640625 -104.859375 C 31.378906 -111.722656 43.929688 -115.15625 61.296875 -115.15625 C 78.671875 -115.15625 91.222656 -111.722656 98.953125 -104.859375 C 106.691406 -98.003906 110.5625 -88.8125 110.5625 -77.28125 L 110.5625 -28.90625 C 110.5625 -13.570312 111.726562 -3.9375 114.0625 0 L 88.453125 0 C 86.847656 -2.039062 85.644531 -4.375 84.84375 -7 C 84.039062 -9.632812 83.640625 -13.140625 83.640625 -17.515625 C 80.421875 -11.085938 75.851562 -6.195312 69.9375 -2.84375 C 64.03125 0.507812 56.265625 2.1875 46.640625 2.1875 Z M 54.953125 -17.078125 C 63.710938 -17.078125 70.460938 -19.992188 75.203125 -25.828125 C 79.953125 -31.671875 82.328125 -38.679688 82.328125 -46.859375 L 82.328125 -54.734375 C 81.296875 -53.566406 79.503906 -52.617188 76.953125 -51.890625 C 74.398438 -51.160156 71.226562 -50.648438 67.4375 -50.359375 L 54.078125 -49.265625 C 46.921875 -48.679688 41.8125 -47 38.75 -44.21875 C 35.6875 -41.445312 34.15625 -38.019531 34.15625 -33.9375 C 34.15625 -28.96875 35.832031 -24.914062 39.1875 -21.78125 C 42.539062 -18.644531 47.796875 -17.078125 54.953125 -17.078125 Z M 54.953125 -17.078125 "/></g></g></g><g fill="#1e1e1e" fill-opacity="1"><g transform="translate(1178.451843, 208.77054)"><g><path d="M 73.34375 2.1875 C 64.875 2.1875 57.753906 0.507812 51.984375 -2.84375 C 46.222656 -6.195312 41.738281 -10.941406 38.53125 -17.078125 L 38.53125 42.90625 L 10.296875 42.90625 L 10.296875 -112.96875 L 37.21875 -112.96875 L 37.21875 -93.703125 C 40.28125 -100.273438 44.691406 -105.492188 50.453125 -109.359375 C 56.222656 -113.222656 63.851562 -115.15625 73.34375 -115.15625 C 88.519531 -115.15625 100.597656 -110.007812 109.578125 -99.71875 C 118.554688 -89.4375 123.046875 -75.023438 123.046875 -56.484375 C 123.046875 -37.953125 118.554688 -23.539062 109.578125 -13.25 C 100.597656 -2.957031 88.519531 2.1875 73.34375 2.1875 Z M 66.5625 -19.265625 C 75.019531 -19.265625 81.835938 -22.253906 87.015625 -28.234375 C 92.203125 -34.222656 94.796875 -43.640625 94.796875 -56.484375 C 94.796875 -69.472656 92.203125 -78.921875 87.015625 -84.828125 C 81.835938 -90.742188 75.019531 -93.703125 66.5625 -93.703125 C 58.238281 -93.703125 51.484375 -90.742188 46.296875 -84.828125 C 41.117188 -78.921875 38.53125 -69.472656 38.53125 -56.484375 C 38.53125 -43.640625 41.117188 -34.222656 46.296875 -28.234375 C 51.484375 -22.253906 58.238281 -19.265625 66.5625 -19.265625 Z M 66.5625 -19.265625 "/></g></g></g><g fill="#1e1e1e" fill-opacity="1"><g transform="translate(1307.395628, 208.77054)"><g><path d="M 57.140625 2.1875 C 39.046875 2.1875 25.984375 -1.347656 17.953125 -8.421875 C 9.921875 -15.503906 5.90625 -24.59375 5.90625 -35.6875 L 33.28125 -35.6875 C 34.007812 -29.695312 36.050781 -24.988281 39.40625 -21.5625 C 42.757812 -18.132812 48.816406 -16.421875 57.578125 -16.421875 C 66.046875 -16.421875 71.957031 -17.953125 75.3125 -21.015625 C 78.664062 -24.078125 80.34375 -27.65625 80.34375 -31.75 C 80.34375 -35.539062 78.921875 -38.492188 76.078125 -40.609375 C 73.234375 -42.722656 69.40625 -44.144531 64.59375 -44.875 L 45.09375 -47.734375 C 32.101562 -49.628906 22.832031 -52.984375 17.28125 -57.796875 C 11.738281 -62.617188 8.96875 -69.84375 8.96875 -79.46875 C 8.96875 -86.1875 10.609375 -92.242188 13.890625 -97.640625 C 17.179688 -103.046875 22.363281 -107.316406 29.4375 -110.453125 C 36.519531 -113.585938 45.753906 -115.15625 57.140625 -115.15625 C 68.671875 -115.15625 77.972656 -113.585938 85.046875 -110.453125 C 92.128906 -107.316406 97.3125 -103.007812 100.59375 -97.53125 C 103.882812 -92.0625 105.53125 -85.894531 105.53125 -79.03125 L 78.15625 -79.03125 C 77.863281 -82.25 77.097656 -85.171875 75.859375 -87.796875 C 74.617188 -90.421875 72.539062 -92.535156 69.625 -94.140625 C 66.707031 -95.742188 62.472656 -96.546875 56.921875 -96.546875 C 49.773438 -96.546875 44.703125 -95.195312 41.703125 -92.5 C 38.710938 -89.800781 37.21875 -86.1875 37.21875 -81.65625 C 37.21875 -78.007812 38.273438 -75.273438 40.390625 -73.453125 C 42.503906 -71.628906 45.609375 -70.425781 49.703125 -69.84375 L 68.96875 -67 C 81.519531 -65.25 91.257812 -61.925781 98.1875 -57.03125 C 105.125 -52.144531 108.59375 -44.300781 108.59375 -33.5 C 108.59375 -26.78125 106.835938 -20.71875 103.328125 -15.3125 C 99.828125 -9.914062 94.316406 -5.648438 86.796875 -2.515625 C 79.285156 0.617188 69.398438 2.1875 57.140625 2.1875 Z M 57.140625 2.1875 "/></g></g></g></g></g><path fill="#1e1e1e" d="M 0 769.101562 C 0 762.886719 0.0859375 762.425781 1.308594 762.105469 C 2.316406 761.839844 2.425781 761.632812 1.78125 761.207031 C 1.121094 760.773438 1.207031 760.492188 2.199219 759.882812 C 2.890625 759.457031 4.164062 758.886719 5.027344 758.613281 C 8.226562 757.601562 26.214844 757.429688 53.09375 758.152344 C 104.652344 759.535156 123.933594 759.609375 154.257812 758.554688 C 193.382812 757.195312 202.011719 756.980469 233.742188 756.574219 C 248.773438 756.378906 268.425781 755.960938 277.410156 755.636719 C 323.066406 754 332.625 753.691406 354.382812 753.128906 C 367.339844 752.796875 386.570312 752.25 397.109375 751.917969 C 407.648438 751.582031 444.40625 751.019531 478.792969 750.664062 C 581.140625 749.609375 610.410156 749.242188 610.800781 749.011719 C 611.523438 748.578125 623.058594 746.285156 628.023438 745.585938 C 630.789062 745.195312 634.464844 744.476562 636.191406 743.992188 C 637.917969 743.507812 642.300781 742.671875 645.929688 742.132812 C 649.558594 741.597656 654.789062 740.625 657.554688 739.972656 C 660.320312 739.320312 665.125 738.46875 668.234375 738.078125 C 671.347656 737.6875 676.152344 736.839844 678.917969 736.203125 C 681.683594 735.5625 684.960938 734.867188 686.199219 734.652344 C 689.675781 734.0625 690.371094 732.210938 689.109375 726.910156 C 685.3125 710.960938 684.800781 690.902344 687.75 673.792969 C 689.652344 662.777344 694.011719 648.183594 698.152344 638.972656 C 698.804688 637.523438 699.339844 636.191406 699.339844 636.011719 C 699.339844 635.289062 707.839844 617.527344 718.914062 595.113281 C 723.640625 585.539062 730.753906 568.246094 730.753906 566.320312 C 730.753906 565.847656 731.347656 563.792969 732.070312 561.75 C 732.792969 559.710938 733.929688 555.070312 734.59375 551.441406 C 735.257812 547.8125 736.136719 543.148438 736.542969 541.074219 C 737.738281 534.976562 737.570312 512.5 736.285156 506.832031 C 735.695312 504.238281 734.664062 499.714844 733.992188 496.777344 C 732.222656 489.0625 727.710938 476.953125 725.09375 472.902344 C 724.757812 472.382812 723.738281 470.542969 722.824219 468.816406 C 721.914062 467.089844 720.960938 465.535156 720.714844 465.359375 C 720.464844 465.1875 719.90625 464.375 719.476562 463.554688 C 719.042969 462.734375 717.714844 460.753906 716.527344 459.15625 C 705.164062 443.890625 690.371094 432.179688 674.207031 425.648438 C 656.550781 418.515625 640.296875 417.265625 609.773438 420.695312 C 600.804688 421.703125 589.363281 422.71875 584.351562 422.949219 C 557.167969 424.203125 532.898438 417.574219 500.785156 400.132812 C 486.539062 392.394531 474.878906 383.261719 456.800781 365.695312 C 446.816406 355.992188 444.582031 354.03125 441.988281 352.703125 C 440.925781 352.160156 439.691406 351.273438 439.242188 350.730469 C 437.082031 348.128906 435.832031 350.625 437.796875 353.609375 C 443.261719 361.910156 451.292969 372.136719 456.65625 377.621094 C 461.164062 382.234375 468.230469 388.023438 471.695312 389.949219 C 476.238281 392.472656 475.738281 393.59375 469.492188 394.914062 C 457.675781 397.410156 444.40625 393.996094 429.792969 384.699219 C 424.6875 381.449219 424.5 381.292969 418.273438 375.152344 C 412.417969 369.382812 411.625 368.449219 408.769531 363.976562 C 401.28125 352.257812 394.949219 330.882812 397.6875 326.558594 C 398.402344 325.425781 417.960938 324.835938 424.441406 325.75 C 436.785156 327.496094 451.390625 333.246094 461.199219 340.234375 C 462.753906 341.34375 464.734375 342.722656 465.597656 343.300781 C 468.761719 345.417969 476.140625 352.191406 486.316406 362.3125 C 499.699219 375.621094 504.953125 380.296875 508.914062 382.402344 C 509.753906 382.851562 510.964844 383.703125 511.601562 384.296875 C 513.566406 386.128906 527.171875 392.609375 533.566406 394.761719 C 546.621094 399.15625 563.003906 401.085938 578.15625 400.007812 C 587.828125 399.320312 605.90625 397.03125 617.339844 395.046875 C 621.140625 394.386719 628.636719 393.53125 633.992188 393.144531 C 639.347656 392.757812 644.394531 392.292969 645.207031 392.113281 C 646.910156 391.742188 666.855469 393.515625 671.0625 394.417969 C 675.621094 395.390625 682.324219 397.445312 687.578125 399.480469 C 694.503906 402.15625 696.101562 402.558594 696.601562 401.75 C 696.835938 401.375 697.074219 394.117188 697.132812 385.617188 C 697.230469 371.679688 697.402344 369.382812 698.882812 362.148438 C 701.8125 347.839844 705.511719 337.296875 712.390625 323.675781 C 714.660156 319.179688 716.996094 314.796875 717.578125 313.933594 C 718.164062 313.066406 720.023438 310.246094 721.714844 307.664062 C 723.402344 305.078125 725.28125 302.410156 725.886719 301.730469 C 726.492188 301.054688 726.984375 300.292969 726.984375 300.042969 C 726.984375 299.789062 728.546875 297.652344 730.453125 295.289062 C 734.675781 290.058594 741.1875 282.011719 745.835938 276.28125 C 747.738281 273.9375 750.140625 270.929688 751.175781 269.59375 C 752.214844 268.257812 753.777344 266.308594 754.652344 265.257812 C 756.957031 262.496094 759.785156 258.679688 761.230469 256.375 C 761.921875 255.277344 763.789062 252.4375 765.378906 250.066406 C 769.105469 244.515625 772.855469 238.324219 772.855469 237.722656 C 772.855469 237.460938 773.496094 236.195312 774.28125 234.90625 C 777.996094 228.800781 783.101562 213.148438 784.074219 204.878906 C 785.832031 189.910156 785.710938 186.011719 782.507812 154.648438 C 781.429688 144.085938 781.433594 143.863281 782.773438 134.691406 C 785.328125 117.222656 793.222656 101.636719 805.605469 89.617188 C 811.894531 83.507812 814.355469 81.667969 822.179688 77.199219 C 829.355469 73.105469 836.78125 70.511719 851.65625 66.910156 C 856.304688 65.785156 855.761719 66.683594 850.285156 69.183594 C 828.558594 79.09375 812.054688 95.492188 803.816406 115.351562 C 797.28125 131.101562 796.039062 145.191406 799.414062 165.332031 C 802.726562 185.113281 803.015625 187.664062 803.015625 197.0625 C 803.015625 206.371094 802.054688 214.792969 800.117188 222.507812 C 799.054688 226.734375 795.84375 235.800781 794.484375 238.398438 C 792.40625 242.386719 793.847656 242.664062 798.472656 239.15625 C 804.128906 234.867188 811.71875 229.960938 815.894531 227.894531 C 817.277344 227.210938 819.117188 226.226562 819.980469 225.707031 C 822.140625 224.410156 830.988281 220.308594 831.628906 220.308594 C 831.914062 220.308594 833.300781 219.753906 834.703125 219.074219 C 839.023438 216.988281 853.554688 212.269531 866.476562 208.753906 C 869.414062 207.953125 874.503906 206.566406 877.785156 205.671875 C 888.644531 202.710938 902.285156 197.929688 909.507812 194.550781 C 911.730469 193.511719 913.699219 192.664062 913.882812 192.664062 C 915.257812 192.664062 936.5 179.769531 940.855469 176.292969 C 947.8125 170.738281 951.464844 167.769531 955.488281 164.398438 L 960.347656 160.324219 L 957.585938 165.339844 C 952.066406 175.371094 946.933594 181.613281 935.632812 192.035156 C 934.515625 193.066406 927.699219 198.253906 926.136719 199.261719 C 925.601562 199.605469 924.226562 200.453125 923.082031 201.144531 C 921.9375 201.835938 919.96875 203.085938 918.714844 203.917969 C 915.6875 205.929688 901.164062 213.1875 897.769531 214.382812 C 896.292969 214.90625 894.515625 215.699219 893.820312 216.148438 C 893.121094 216.601562 891.703125 217.179688 890.667969 217.433594 C 889.628906 217.6875 886.660156 218.699219 884.070312 219.679688 C 881.476562 220.660156 876.386719 222.367188 872.761719 223.476562 C 869.132812 224.585938 864.464844 226.050781 862.390625 226.730469 C 860.320312 227.410156 856.679688 228.519531 854.300781 229.191406 C 851.925781 229.863281 849.242188 230.796875 848.332031 231.265625 C 847.425781 231.734375 845.410156 232.453125 843.855469 232.859375 C 842.300781 233.269531 840.15625 234.109375 839.09375 234.726562 C 838.027344 235.34375 836.046875 236.214844 834.695312 236.660156 C 833.339844 237.105469 831.242188 238.089844 830.03125 238.851562 C 828.824219 239.609375 827.15625 240.449219 826.328125 240.710938 C 825.503906 240.972656 823.539062 242.003906 821.964844 243 C 820.390625 244 818.859375 244.816406 818.558594 244.816406 C 818.253906 244.816406 815.433594 246.511719 812.285156 248.585938 C 809.140625 250.660156 806.378906 252.355469 806.15625 252.355469 C 805.929688 252.355469 805.082031 253.0625 804.269531 253.925781 C 803.460938 254.789062 802.5625 255.496094 802.277344 255.496094 C 801.800781 255.496094 795.402344 260.214844 792.902344 262.410156 C 792.3125 262.925781 790.785156 264.199219 789.507812 265.234375 C 780.203125 272.796875 757.121094 297.390625 750.546875 306.75 C 744.328125 315.605469 743.324219 317.101562 743.324219 317.476562 C 743.324219 317.707031 742.667969 318.773438 741.871094 319.839844 C 740.605469 321.539062 736.742188 329.105469 733.664062 335.921875 C 733.121094 337.132812 732.070312 340.101562 731.335938 342.519531 C 730.597656 344.941406 729.761719 347.210938 729.472656 347.566406 C 729.183594 347.921875 728.214844 352.445312 727.320312 357.621094 C 725.683594 367.105469 725.171875 377.652344 726.046875 384.078125 C 727.609375 395.582031 730.808594 407.558594 733.832031 413.210938 C 734.480469 414.417969 735.222656 416.113281 735.484375 416.980469 C 735.925781 418.441406 740.140625 426.316406 743.007812 431.035156 C 743.699219 432.171875 745.1875 434.664062 746.316406 436.574219 C 747.445312 438.488281 748.929688 440.558594 749.617188 441.179688 C 750.300781 441.800781 750.863281 442.507812 750.863281 442.75 C 750.863281 442.996094 752.347656 445.386719 754.160156 448.066406 C 755.976562 450.746094 757.851562 453.683594 758.328125 454.59375 C 758.804688 455.503906 759.691406 456.816406 760.296875 457.507812 C 760.90625 458.199219 762.070312 459.996094 762.886719 461.503906 C 763.703125 463.015625 765.316406 465.984375 766.472656 468.101562 C 774.011719 481.941406 778.449219 493.113281 782.226562 507.773438 C 784.816406 517.835938 785.980469 526.382812 786.457031 538.875 C 787.195312 558.261719 784.625 576.429688 777.613281 601.394531 C 776.347656 605.886719 774.789062 611.542969 774.148438 613.960938 C 773.503906 616.382812 772.273438 620.90625 771.417969 624.015625 C 769.445312 631.167969 767.425781 639.796875 766.488281 645.066406 C 765.539062 650.414062 765.535156 674.953125 766.484375 680.40625 C 768.066406 689.488281 772.035156 699.660156 777.335938 708.207031 C 779.527344 711.746094 788.4375 720.902344 792.109375 723.394531 C 797.121094 726.800781 803.410156 730.371094 805.675781 731.105469 C 806.96875 731.523438 808.164062 732.09375 808.335938 732.371094 C 809.152344 733.691406 831.519531 739.964844 841.34375 741.628906 C 844.28125 742.128906 848.523438 743 850.769531 743.570312 C 855.722656 744.824219 864.921875 744.925781 878.414062 743.878906 C 903.085938 741.964844 970.160156 740.503906 1032.792969 740.515625 C 1092.445312 740.527344 1273.039062 741.5625 1340.242188 742.277344 C 1386.839844 742.777344 1398.445312 742.785156 1455.542969 742.371094 L 1486.960938 742.144531 L 1490.179688 744.027344 C 1491.953125 745.066406 1494.992188 747.304688 1496.933594 749.003906 C 1500.234375 751.890625 1500.46875 752.28125 1500.46875 754.890625 L 1500.46875 757.683594 L 1462.925781 757.53125 C 1442.277344 757.445312 1391.3125 757.824219 1349.667969 758.375 C 1308.023438 758.921875 1238.609375 759.664062 1195.410156 760.019531 C 1046.378906 761.253906 942.199219 762.777344 913.289062 764.152344 C 869.382812 766.238281 855.667969 766.519531 848.097656 765.488281 C 844.210938 764.960938 838.484375 764.355469 835.375 764.140625 C 818.714844 763.007812 804.949219 758.160156 790.167969 748.21875 C 785.09375 744.804688 776.238281 736.25 772.175781 730.832031 C 769.035156 726.648438 765.316406 720.386719 765.316406 719.285156 C 765.316406 718.894531 764.589844 717.089844 763.707031 715.277344 C 762.035156 711.855469 758.3125 700.980469 758.0625 698.789062 C 755.40625 675.785156 755.148438 671.117188 755.882812 659.515625 C 756.71875 646.304688 757.703125 637.746094 759.523438 627.785156 C 760.21875 623.984375 761.132812 618.753906 761.554688 616.160156 C 761.976562 613.570312 762.53125 611.167969 762.789062 610.820312 C 763.046875 610.476562 763.765625 608.070312 764.382812 605.480469 C 765 602.886719 765.90625 599.636719 766.398438 598.253906 C 766.890625 596.871094 767.414062 595.175781 767.554688 594.484375 C 768.871094 588.101562 769.972656 583.621094 770.4375 582.71875 C 770.742188 582.125 771.707031 578.308594 772.574219 574.238281 C 776.875 554.042969 777.433594 539.164062 774.40625 525.367188 C 771.609375 512.621094 770.925781 509.722656 769.191406 503.375 C 767.476562 497.082031 764.132812 488.105469 762.886719 486.449219 C 762.609375 486.082031 762 484.792969 761.53125 483.582031 C 761.0625 482.375 760.070312 480.394531 759.328125 479.183594 C 757.6875 476.515625 752.617188 467.0625 747.359375 456.878906 C 743.292969 448.996094 740.265625 443.492188 739.410156 442.425781 C 738.9375 441.839844 731.828125 431.1875 730.441406 428.992188 C 730.097656 428.445312 728.914062 426.902344 727.8125 425.5625 C 726.445312 423.898438 725.082031 420.816406 723.511719 415.8125 C 722.25 411.789062 720.972656 407.929688 720.675781 407.238281 C 720.378906 406.546875 719.53125 403.863281 718.796875 401.269531 C 718.0625 398.679688 717.0625 395.363281 716.578125 393.902344 C 713.953125 385.960938 713.644531 364.648438 716.011719 354.277344 C 716.539062 351.957031 717.515625 347.65625 718.179688 344.71875 C 720.09375 336.242188 722.769531 329.226562 726.910156 321.832031 C 729.027344 318.058594 730.757812 314.867188 730.757812 314.738281 C 730.757812 314.613281 731.289062 313.742188 731.9375 312.808594 C 732.589844 311.871094 734.5 308.984375 736.179688 306.390625 C 737.863281 303.800781 739.457031 301.398438 739.726562 301.050781 C 740.167969 300.480469 746.714844 291.191406 748.964844 287.941406 C 751.546875 284.207031 757.230469 277.355469 760.742188 273.742188 C 764.398438 269.980469 765.300781 268.691406 764.28125 268.691406 C 762.367188 268.691406 749.09375 283.21875 741.605469 293.511719 C 740.09375 295.585938 738.523438 297.710938 738.109375 298.238281 C 736.441406 300.351562 731.386719 308.296875 731.386719 308.800781 C 731.386719 309.097656 730.820312 309.851562 730.128906 310.476562 C 729.4375 311.101562 728.871094 311.859375 728.871094 312.15625 C 728.871094 312.457031 728.179688 313.792969 727.335938 315.132812 C 725.886719 317.425781 722.800781 323.117188 718.792969 330.898438 C 714.136719 339.925781 712.152344 345.523438 709.542969 356.972656 C 708.167969 363.011719 708.199219 389.628906 709.589844 397.816406 C 711.238281 407.492188 713.609375 417.433594 714.570312 418.675781 C 714.890625 419.09375 715.058594 419.84375 714.941406 420.351562 C 714.78125 421.070312 713.703125 420.761719 710.003906 418.9375 C 707.402344 417.65625 703.585938 415.941406 701.519531 415.121094 C 699.457031 414.300781 697.484375 413.425781 697.140625 413.171875 C 696.792969 412.917969 694.578125 412.117188 692.214844 411.394531 C 689.855469 410.667969 687.027344 409.652344 685.933594 409.136719 C 683.082031 407.792969 673.96875 405.039062 669.121094 404.058594 C 666.488281 403.527344 659.5 403.175781 649.957031 403.097656 C 637.6875 402.996094 634.300781 403.160156 631.480469 403.992188 C 629.578125 404.550781 625.621094 405.613281 622.683594 406.347656 C 619.746094 407.085938 615.644531 408.203125 613.570312 408.832031 C 607.390625 410.707031 589.007812 411.714844 577.726562 410.800781 C 570.765625 410.234375 568.113281 409.78125 567.261719 409.011719 C 566.636719 408.445312 565.945312 408.160156 565.726562 408.378906 C 565.167969 408.9375 566.726562 410.695312 567.78125 410.695312 C 568.257812 410.695312 568.644531 410.941406 568.644531 411.242188 C 568.644531 411.875 575.238281 413.828125 577.484375 413.859375 C 578.324219 413.871094 580.566406 414.425781 582.46875 415.097656 C 591.433594 418.265625 616.933594 418.089844 631.671875 414.765625 C 637.328125 413.488281 640.234375 413.210938 647.9375 413.210938 C 662.667969 413.210938 666.523438 414.082031 677.660156 419.9375 C 682.496094 422.480469 696.734375 431.53125 699.980469 434.121094 C 701.035156 434.964844 706.867188 439.320312 709.484375 441.21875 C 712.632812 443.507812 721.648438 450.53125 722.453125 451.324219 C 722.894531 451.761719 724.554688 453.046875 726.144531 454.183594 C 728.863281 456.132812 732.007812 460.132812 735.210938 465.722656 C 742.289062 478.089844 742.816406 479.40625 748.28125 498.347656 C 751.914062 510.953125 751.851562 519.957031 747.980469 541.074219 C 746.222656 550.6875 746.085938 551.199219 741.730469 564.953125 C 738.71875 574.453125 735.9375 581.839844 731.679688 591.65625 C 730.40625 594.59375 728.5625 599.117188 727.589844 601.710938 C 726.613281 604.300781 724.929688 608.683594 723.84375 611.449219 C 716.75 629.542969 715.578125 632.992188 712.445312 645.066406 C 709.335938 657.050781 708.804688 660.367188 708.109375 672.28125 C 707.261719 686.726562 707.847656 703.332031 709.5625 713.554688 C 711.273438 723.742188 711.210938 728.589844 709.261719 737.5 C 708.039062 743.085938 707.0625 745.828125 705.105469 749.179688 C 702.3125 753.960938 698.519531 757.785156 695.183594 759.179688 C 692.601562 760.257812 686.441406 761.34375 681.746094 761.550781 C 679.84375 761.632812 675.605469 762.035156 672.320312 762.445312 C 669.039062 762.855469 661.882812 763.484375 656.417969 763.84375 C 650.953125 764.203125 645.121094 764.753906 643.460938 765.070312 C 634.898438 766.691406 616.640625 766.90625 490.101562 766.851562 C 365.980469 766.796875 330.5625 767.097656 253.535156 768.847656 C 238.675781 769.1875 210.117188 769.75 190.074219 770.101562 C 149.492188 770.816406 117.085938 771.679688 94.878906 772.632812 C 72.15625 773.609375 10.332031 775.753906 4.871094 775.757812 L 0 775.757812 Z M 957.269531 573.164062 C 931.699219 564.605469 915.09375 550.457031 906.6875 530.070312 C 903.945312 523.421875 901.660156 513.730469 901.03125 506.085938 C 900.382812 498.191406 901.179688 482.722656 902.308594 481.363281 C 903.417969 480.027344 905.796875 480.210938 914.082031 482.28125 C 933.519531 487.140625 951.339844 501.382812 960.34375 519.261719 C 963.214844 524.960938 965.410156 532.53125 966.410156 540.15625 C 967.308594 547.039062 966.667969 555.257812 964.324219 566.835938 C 962.75 574.621094 962.441406 574.894531 957.269531 573.164062 Z M 942.230469 535.890625 C 939.707031 525.257812 934.53125 514.429688 927.914062 505.9375 C 926.472656 504.089844 919.628906 497.132812 916.484375 494.328125 C 914.40625 492.46875 913.109375 493.285156 914.652344 495.484375 C 915.222656 496.300781 916.308594 498.125 917.066406 499.542969 C 917.820312 500.960938 919.292969 503.671875 920.332031 505.574219 C 926.003906 515.933594 925.320312 514.769531 930.273438 522.539062 C 934.171875 528.65625 941.128906 537.621094 941.980469 537.621094 C 942.382812 537.621094 942.480469 536.945312 942.230469 535.890625 Z M 516.898438 567.253906 C 515.242188 565.421875 514.148438 551.175781 515.09375 543.746094 C 516.042969 536.300781 518.09375 528.234375 520.011719 524.414062 C 520.839844 522.765625 521.519531 521.121094 521.519531 520.761719 C 521.519531 519.34375 529.511719 508.269531 533.140625 504.65625 C 536.914062 500.902344 544.214844 495.304688 546.460938 494.445312 C 547.085938 494.207031 548.523438 493.382812 549.660156 492.613281 C 550.792969 491.84375 552.632812 491.015625 553.742188 490.777344 C 554.855469 490.539062 556.851562 489.789062 558.179688 489.117188 C 559.507812 488.445312 563.609375 487.324219 567.289062 486.628906 C 570.972656 485.933594 575.53125 484.960938 577.417969 484.472656 C 581.261719 483.476562 586.613281 483.292969 587.136719 484.140625 C 587.5625 484.828125 585.90625 500.773438 584.625 508.304688 C 582.078125 523.257812 575.3125 536.652344 565.207031 546.734375 C 554.949219 556.964844 542.515625 563.308594 525.773438 566.84375 C 521.695312 567.703125 518.265625 568.40625 518.152344 568.40625 C 518.039062 568.40625 517.472656 567.886719 516.898438 567.253906 Z M 544.914062 534.230469 C 551.640625 527.300781 557.503906 519.945312 566.5 507.152344 C 568.199219 504.734375 569.960938 502.332031 570.414062 501.808594 C 572.539062 499.371094 575.648438 494.773438 575.363281 494.488281 C 574.703125 493.832031 570.015625 496.859375 564.332031 501.609375 C 558.46875 506.511719 551.3125 514.820312 548.46875 520.027344 C 547.808594 521.234375 546.996094 522.648438 546.660156 523.167969 C 544.375 526.726562 540.820312 535.976562 541.488281 536.644531 C 542.03125 537.1875 542.082031 537.152344 544.914062 534.230469 Z M 380.210938 545.285156 C 379.113281 543.234375 379.390625 537.402344 381.070312 527.160156 C 383.921875 509.78125 390.601562 496.378906 402.128906 484.910156 C 405.472656 481.582031 413.027344 475.59375 416.027344 473.894531 C 421.292969 470.910156 427.1875 468.070312 429.78125 467.265625 C 431.335938 466.785156 432.957031 466.132812 433.378906 465.8125 C 434.136719 465.242188 446.265625 462.046875 451.773438 460.964844 C 453.328125 460.660156 456.085938 460.390625 457.898438 460.371094 C 461.628906 460.328125 461.457031 460.007812 461.269531 466.617188 C 460.835938 481.675781 458.03125 495.640625 453.617188 504.71875 C 441.109375 530.441406 419.195312 544.347656 388.328125 546.152344 C 381.238281 546.566406 380.875 546.527344 380.210938 545.285156 Z M 417.253906 512.140625 C 423.105469 507.351562 436.019531 492.65625 441.242188 484.839844 C 441.820312 483.976562 443.855469 481.007812 445.769531 478.242188 C 447.683594 475.476562 449.253906 472.730469 449.253906 472.136719 C 449.261719 471.167969 449.019531 471.199219 446.90625 472.421875 C 445.609375 473.171875 444.40625 473.960938 444.234375 474.171875 C 444.0625 474.386719 442.355469 475.703125 440.445312 477.101562 C 435.679688 480.59375 429.273438 487.039062 424.796875 492.859375 C 422.738281 495.53125 420.460938 498.484375 419.738281 499.417969 C 417.882812 501.820312 411.585938 514.53125 411.957031 515.128906 C 412.46875 515.960938 412.835938 515.753906 417.253906 512.140625 Z M 481.992188 530.820312 C 480.988281 528.941406 479.953125 521.277344 480.414062 519.140625 C 481.0625 516.125 483.785156 511.066406 485.617188 509.46875 C 488.410156 507.03125 495.605469 502.433594 496.632812 502.433594 C 498.183594 502.433594 498.9375 504.617188 499.335938 510.269531 C 499.679688 515.144531 499.578125 515.828125 498.015625 519.019531 C 496.019531 523.101562 491.75 527.140625 486.4375 529.972656 C 482.8125 531.90625 482.597656 531.945312 481.992188 530.820312 Z M 1010.964844 526.558594 C 1005.253906 523.921875 1001.800781 521.195312 999.605469 517.589844 C 997.785156 514.601562 997.519531 513.574219 997.285156 508.667969 C 996.945312 501.542969 997.335938 499.917969 999.394531 499.917969 C 1002.101562 499.917969 1008.554688 502.945312 1010.816406 505.273438 C 1014.355469 508.917969 1016.019531 513.910156 1016.019531 520.878906 C 1016.019531 528.285156 1015.636719 528.714844 1010.964844 526.558594 Z M 1079.796875 518.6875 C 1068.75 517.296875 1054.347656 512.113281 1044.925781 506.136719 C 1044.40625 505.808594 1043.160156 505.050781 1042.15625 504.457031 C 1036.757812 501.261719 1024.054688 488.851562 1019.886719 482.695312 C 1014.378906 474.570312 1010.648438 467.753906 1008.347656 461.589844 C 1007.636719 459.691406 1006.824219 457.839844 1006.542969 457.476562 C 1006.257812 457.117188 1005.285156 454.148438 1004.375 450.878906 C 1003.46875 447.613281 1002.054688 442.535156 1001.238281 439.597656 C 1000.421875 436.660156 998.996094 432.21875 998.070312 429.726562 C 995.605469 423.078125 995.699219 422.988281 1004.535156 423.519531 C 1022.101562 424.570312 1034.589844 427.085938 1047.121094 432.101562 C 1072.945312 442.441406 1092.371094 464.867188 1099.332031 492.378906 C 1101.671875 501.613281 1103.742188 516.410156 1102.976562 518.402344 C 1102.652344 519.253906 1101.257812 519.386719 1093.394531 519.320312 C 1088.335938 519.273438 1082.214844 518.988281 1079.796875 518.6875 Z M 1067.542969 486.96875 C 1067.542969 486.761719 1066.230469 483.925781 1064.625 480.667969 C 1059.167969 469.597656 1050.542969 458.773438 1040.839844 450.820312 C 1033.269531 444.613281 1015.492188 434.261719 1014.355469 435.402344 C 1014.128906 435.628906 1015.3125 437.019531 1016.988281 438.492188 C 1021.652344 442.589844 1026.714844 447.851562 1038.640625 460.988281 C 1053.480469 477.339844 1067.542969 489.980469 1067.542969 486.96875 Z M 846.996094 491.765625 C 845.441406 491.464844 842.757812 490.53125 841.027344 489.683594 C 839.300781 488.839844 837.25 487.949219 836.472656 487.707031 C 835.695312 487.464844 835.058594 487.03125 835.058594 486.742188 C 835.058594 486.453125 833.859375 485.511719 832.390625 484.648438 C 829.765625 483.113281 823.851562 477.128906 817.828125 469.917969 C 816.660156 468.523438 816.667969 468.492188 818.472656 466.800781 C 828.238281 457.648438 842.609375 453.523438 856.152344 455.984375 C 860.035156 456.691406 868.839844 460.335938 870.988281 462.125 C 873.800781 464.472656 882 472.699219 882.980469 474.15625 C 883.558594 475.023438 885.027344 477.140625 886.242188 478.871094 C 887.457031 480.597656 888.453125 482.484375 888.457031 483.058594 C 888.472656 484.507812 883.980469 486.882812 876.015625 489.625 C 869.570312 491.847656 868.917969 491.945312 859.566406 492.125 C 854.207031 492.226562 848.554688 492.066406 847 491.765625 Z M 641.21875 489.652344 C 633.816406 487.261719 626.382812 483.742188 623.328125 481.179688 C 621.300781 479.484375 621.203125 479.230469 621.917969 477.660156 C 623.417969 474.367188 629.964844 466.984375 634.449219 463.523438 C 640.707031 458.699219 642.296875 457.773438 648.835938 455.15625 C 658.523438 451.277344 670.105469 451.3125 680.652344 455.25 C 687.925781 457.964844 698.710938 465.171875 698.710938 467.316406 C 698.710938 467.949219 696.199219 470.949219 693.132812 473.980469 C 686.945312 480.105469 683.769531 482.761719 680.488281 484.5625 C 679.277344 485.226562 677.855469 486.113281 677.324219 486.535156 C 676.792969 486.957031 673.542969 488.300781 670.097656 489.519531 C 664.136719 491.632812 663.449219 491.734375 655.667969 491.710938 C 648.214844 491.6875 646.949219 491.507812 641.21875 489.652344 Z M 684.730469 470.996094 C 693.160156 468.890625 684.621094 467.828125 669.492188 469.105469 C 661.890625 469.75 657.816406 470.800781 659.222656 471.757812 C 660.4375 472.585938 680.808594 471.976562 684.730469 470.996094 Z M 953.5 479.796875 C 944.246094 477.640625 934.460938 472.707031 928.335938 467.109375 C 924.40625 463.515625 918.628906 456.25 918.628906 454.898438 C 918.628906 454.433594 918.378906 454.050781 918.074219 454.050781 C 917.765625 454.050781 916.945312 452.566406 916.25 450.753906 C 912.109375 439.988281 912.046875 439.359375 915.015625 438.429688 C 916.867188 437.851562 926.769531 435.867188 932.558594 434.914062 C 938.296875 433.96875 947.996094 434.496094 954.539062 436.109375 C 960.527344 437.585938 968.046875 440.738281 971.09375 443.054688 C 975.773438 446.613281 979.300781 449.917969 982.5 453.738281 C 986.679688 458.734375 993.40625 469.644531 993.390625 471.410156 C 993.378906 472.816406 989.59375 474.464844 978.949219 477.714844 C 972.703125 479.621094 970.65625 479.949219 963.867188 480.148438 C 959.546875 480.277344 954.882812 480.117188 953.5 479.796875 Z M 958.214844 458.820312 C 958.214844 458.464844 950.125 454.050781 949.472656 454.050781 C 949.183594 454.050781 947.285156 453.296875 945.253906 452.378906 C 938.882812 449.492188 927.195312 445.253906 925.613281 445.253906 C 924.871094 445.253906 925.011719 445.636719 926.183594 446.792969 C 932.28125 452.828125 946.488281 458.949219 954.601562 459.039062 C 956.585938 459.058594 958.214844 458.960938 958.214844 458.820312 Z M 515.550781 476.0625 C 505.496094 473.902344 492.660156 467.472656 484.507812 460.511719 C 481.628906 458.058594 482.054688 456.683594 487.359375 451.300781 C 502.832031 435.601562 524.421875 431.230469 545.339844 439.5625 C 553.445312 442.789062 565.105469 444.484375 572.277344 443.472656 C 581.90625 442.113281 592.1875 438.976562 599.433594 435.191406 C 606.632812 431.429688 612 428.980469 612 429.453125 C 612 430.054688 603.621094 438.179688 598.160156 442.871094 C 585.171875 454.042969 578.9375 458.289062 564.011719 466.144531 C 561.546875 467.441406 558.226562 468.898438 556.628906 469.386719 C 555.03125 469.875 552.910156 470.683594 551.917969 471.191406 C 550.921875 471.695312 546.574219 473.035156 542.253906 474.171875 C 535.683594 475.898438 533.066406 476.265625 526.230469 476.417969 C 521.738281 476.519531 516.933594 476.359375 515.550781 476.0625 Z M 550.621094 458.503906 C 551.34375 457.78125 550.871094 457.667969 540.996094 456.164062 C 533.089844 454.960938 525.15625 454.667969 524.660156 455.5625 C 524.292969 456.226562 529.886719 458.242188 534.402344 459.070312 C 538.195312 459.765625 549.761719 459.363281 550.621094 458.503906 Z M 785.914062 473.6875 C 785.386719 473.082031 783.394531 469.617188 781.484375 465.988281 C 777.03125 457.527344 775.824219 455.441406 768.632812 443.8125 C 764.980469 437.90625 764.980469 437.902344 766.160156 435.65625 C 766.746094 434.542969 768.191406 431.933594 769.371094 429.859375 C 770.550781 427.785156 771.886719 425.382812 772.34375 424.519531 C 774.292969 420.820312 785.761719 404.300781 789.820312 399.347656 C 796.15625 391.609375 813.171875 375.402344 814.042969 376.273438 C 814.210938 376.441406 812.566406 380.085938 810.386719 384.367188 C 808.210938 388.652344 805.816406 393.574219 805.0625 395.300781 C 804.3125 397.03125 802.394531 401.410156 800.800781 405.039062 C 796.675781 414.441406 791.703125 428.074219 791.703125 429.988281 C 791.703125 431.035156 793.5625 430.054688 798.617188 426.339844 C 801.8125 423.992188 807.675781 420.070312 813.117188 416.636719 C 820.789062 411.796875 840.542969 403.375 849.195312 401.253906 C 850.234375 400.996094 853.257812 400.195312 855.917969 399.464844 C 860.753906 398.140625 867.535156 396.90625 879.355469 395.199219 C 884.058594 394.519531 896.628906 394.175781 929.3125 393.828125 C 953.332031 393.574219 973.269531 393.191406 973.621094 392.972656 C 973.972656 392.757812 980.191406 391.828125 987.441406 390.910156 C 994.695312 389.988281 1001.757812 388.960938 1003.140625 388.621094 C 1004.523438 388.28125 1009.328125 387.203125 1013.820312 386.222656 C 1021.039062 384.648438 1027.703125 382.789062 1040.839844 378.683594 C 1044.59375 377.511719 1052.234375 374.628906 1060.003906 371.449219 C 1073.023438 366.128906 1094.523438 354.496094 1107.253906 345.886719 C 1109.226562 344.554688 1111.089844 343.464844 1111.398438 343.464844 C 1111.707031 343.464844 1112.457031 342.917969 1113.0625 342.246094 C 1113.667969 341.578125 1114.957031 340.753906 1115.929688 340.414062 C 1117.667969 339.808594 1117.65625 339.855469 1114.875 343.832031 C 1112.15625 347.722656 1102.296875 357.980469 1097.300781 362.121094 C 1081.203125 375.457031 1067.171875 384.199219 1048.660156 392.425781 C 1036.4375 397.855469 1016.851562 404.367188 1002.511719 407.761719 C 980.21875 413.042969 961.730469 415.113281 925.855469 416.351562 C 899.539062 417.257812 885.476562 418.71875 870.558594 422.09375 C 864.558594 423.449219 852.34375 427.152344 849.195312 428.570312 C 848.160156 429.035156 845.191406 430.292969 842.597656 431.363281 C 826.253906 438.105469 806.195312 453.394531 793.863281 468.503906 C 790.410156 472.734375 788.296875 474.785156 787.394531 474.785156 C 787.109375 474.785156 786.441406 474.292969 785.914062 473.6875 Z M 410.304688 439.988281 C 401.992188 437.71875 395.222656 434.308594 395.222656 432.394531 C 395.222656 429.8125 402.972656 421.230469 408.640625 417.535156 C 414.433594 413.757812 418.492188 412.492188 426.011719 412.121094 C 435.753906 411.640625 443.589844 413.96875 450.96875 419.539062 C 455.277344 422.792969 455.335938 424.175781 451.304688 427.464844 C 438.667969 437.769531 432.125 440.800781 421.613281 441.214844 C 416.800781 441.402344 414.609375 441.167969 410.304688 439.988281 Z M 752.585938 409.554688 C 747.464844 401.816406 743.324219 388.519531 743.324219 379.8125 C 743.324219 373.207031 745.785156 364.007812 749.054688 358.410156 C 751.847656 353.632812 758.570312 346.386719 762.726562 343.683594 C 764.242188 342.699219 766.222656 341.394531 767.125 340.78125 C 770.136719 338.746094 771.65625 339.523438 774.226562 344.40625 C 775.5 346.824219 777.480469 351.632812 778.625 355.085938 C 780.585938 361.003906 780.707031 361.882812 780.703125 370.167969 C 780.699219 378.199219 780.542969 379.429688 778.890625 384.304688 C 777.894531 387.242188 775.925781 391.605469 774.515625 394 C 770.375 401.027344 758.6875 411.953125 755.3125 411.953125 C 754.683594 411.953125 753.457031 410.875 752.585938 409.554688 Z M 685.828125 393.402344 C 679.5625 391.152344 667.6875 388.019531 661.992188 387.113281 C 658.558594 386.566406 655.558594 386 655.324219 385.859375 C 653.992188 385.03125 637 383.621094 622.054688 383.09375 C 612.550781 382.757812 603.925781 382.207031 602.890625 381.863281 C 601.851562 381.523438 598.035156 380.777344 594.40625 380.207031 C 590.777344 379.640625 585.191406 378.347656 581.988281 377.339844 C 578.789062 376.332031 575.878906 375.507812 575.523438 375.507812 C 575.167969 375.507812 573.0625 374.660156 570.84375 373.625 C 568.625 372.585938 566.570312 371.738281 566.273438 371.738281 C 565.980469 371.738281 563.351562 370.5 560.4375 368.988281 C 555.480469 366.417969 553.167969 365.117188 548 362 C 544.472656 359.871094 535.257812 352.921875 530.628906 348.894531 C 526.582031 345.375 524.375 343.339844 516.492188 335.882812 C 514.9375 334.410156 511.402344 331.40625 508.636719 329.207031 C 505.875 327.011719 502.953125 324.652344 502.144531 323.96875 C 501.339844 323.285156 500.589844 322.730469 500.484375 322.730469 C 500.375 322.730469 498.066406 321.242188 495.351562 319.421875 C 478.671875 308.257812 464.105469 301.640625 444.570312 296.367188 C 429.769531 292.367188 415.53125 289.945312 401.320312 289.011719 C 388.515625 288.167969 398.929688 286.289062 418.949219 285.832031 C 435.859375 285.445312 445.359375 286.15625 458.6875 288.808594 C 476.589844 292.371094 492.355469 298.257812 507.066406 306.867188 C 513.4375 310.59375 513.5625 310.683594 521.125 316.636719 C 523.84375 318.777344 526.683594 320.953125 527.429688 321.472656 C 528.179688 321.988281 529.382812 322.980469 530.101562 323.671875 C 530.820312 324.363281 533.320312 326.625 535.660156 328.699219 C 537.996094 330.769531 540.527344 333.035156 541.277344 333.722656 C 542.03125 334.414062 544.605469 336.464844 547.003906 338.277344 C 549.402344 340.09375 552.074219 342.140625 552.9375 342.824219 C 553.800781 343.511719 554.773438 344.078125 555.09375 344.082031 C 555.417969 344.089844 556.265625 344.636719 556.980469 345.304688 C 558.789062 346.992188 572.699219 353.894531 578.890625 356.171875 C 581.722656 357.214844 587.007812 358.734375 590.636719 359.546875 C 594.265625 360.359375 598.363281 361.308594 599.746094 361.660156 C 601.128906 362.011719 607.207031 362.582031 613.257812 362.925781 C 626.011719 363.65625 626.894531 363.757812 636.503906 365.546875 C 652.863281 368.597656 662.542969 372.292969 673.882812 379.824219 C 680.121094 383.964844 687.152344 390.242188 688.582031 392.945312 C 689.449219 394.582031 689.222656 394.621094 685.828125 393.402344 Z M 841.027344 377.257812 C 837.574219 376.984375 834.390625 376.628906 833.960938 376.46875 C 832.402344 375.890625 833.238281 374.523438 836.472656 372.375 C 843.191406 367.917969 847.46875 364.386719 853.601562 358.246094 C 861.507812 350.324219 872.59375 336.59375 871.753906 335.757812 C 871.414062 335.414062 866.925781 337.921875 862.160156 341.113281 C 859.503906 342.894531 853.027344 349.238281 839.773438 363.046875 C 830.179688 373.039062 827.003906 375.875 826.246094 375.113281 C 825.574219 374.445312 826.992188 363.921875 828.378906 359.269531 C 831.449219 348.964844 837.464844 339.183594 845.582031 331.289062 C 851.210938 325.816406 855.074219 322.792969 858.9375 320.84375 C 860.492188 320.058594 861.90625 319.222656 862.078125 318.984375 C 862.703125 318.121094 874.574219 313.878906 878.800781 313.007812 C 887.007812 311.316406 894.363281 310.644531 901.785156 310.910156 C 911.960938 311.269531 911.773438 311.042969 909.894531 320.777344 C 909.101562 324.902344 908.089844 328.972656 907.644531 329.828125 C 907.199219 330.683594 906.339844 332.898438 905.734375 334.753906 C 904.492188 338.542969 900.839844 345.597656 897.757812 350.164062 C 895.550781 353.433594 886.402344 363.058594 883.902344 364.742188 C 872.296875 372.546875 866.875 375.035156 858.488281 376.398438 C 850.558594 377.691406 848.078125 377.8125 841.027344 377.257812 Z M 931.507812 358.4375 C 928.746094 358.125 924.503906 357.667969 922.085938 357.421875 C 917.691406 356.972656 917.6875 356.972656 917.769531 355.085938 C 918.035156 349.035156 925.527344 330.941406 931.652344 321.554688 C 936.773438 313.695312 944.234375 305.636719 951.300781 300.316406 C 960.566406 293.347656 973.035156 287.839844 983.824219 285.960938 C 990.0625 284.871094 1003.460938 284.738281 1009.929688 285.699219 C 1016.28125 286.644531 1024.238281 288.824219 1024.578125 289.714844 C 1025.339844 291.695312 1017.152344 309.84375 1010.816406 320.214844 C 1005.320312 329.210938 993.480469 341.074219 984.917969 346.152344 C 980.449219 348.804688 972.183594 352.765625 970.242188 353.1875 C 969.085938 353.441406 966.960938 354.167969 965.519531 354.800781 C 962.550781 356.117188 957.8125 356.945312 947.847656 357.894531 C 944.042969 358.257812 939.945312 358.65625 938.734375 358.777344 C 937.527344 358.902344 934.273438 358.75 931.507812 358.4375 Z M 940.304688 344.988281 C 947.195312 341.566406 952.003906 338.496094 957.898438 333.742188 C 964.808594 328.175781 982.082031 309.941406 981.242188 309.101562 C 980.355469 308.21875 967.164062 316.429688 958.691406 323.132812 C 953.90625 326.921875 941.902344 337.09375 939.578125 339.332031 C 938.832031 340.046875 937.03125 341.625 935.578125 342.835938 C 934.125 344.042969 932.046875 345.832031 930.964844 346.8125 L 928.996094 348.585938 L 931.824219 348.191406 C 933.378906 347.976562 937.195312 346.535156 940.304688 344.988281 Z M 694.308594 353.699219 C 691.03125 349.796875 683.921875 335.902344 679.105469 323.984375 C 674.972656 313.765625 675.535156 315.363281 669.207031 296.023438 C 660.289062 268.785156 657.433594 261.878906 650.875 251.726562 C 642.273438 238.40625 627.777344 224.363281 615.457031 217.410156 C 607.015625 212.648438 602.566406 210.253906 602.144531 210.253906 C 601.863281 210.253906 600.21875 209.527344 598.492188 208.644531 C 596.761719 207.761719 593.652344 206.464844 591.578125 205.765625 C 589.503906 205.0625 587.527344 204.257812 587.179688 203.976562 C 586.835938 203.695312 585.28125 203.140625 583.726562 202.742188 C 582.167969 202.339844 579.058594 201.363281 576.8125 200.566406 C 566.257812 196.828125 546 192.175781 531.265625 190.105469 C 526.085938 189.375 521.703125 188.691406 521.527344 188.582031 C 521.347656 188.472656 516.398438 188.078125 510.523438 187.699219 C 504.648438 187.320312 497.863281 186.816406 495.445312 186.578125 L 491.046875 186.140625 L 493.871094 185.679688 C 498.183594 184.972656 525.039062 185.039062 534.992188 185.78125 C 543.9375 186.445312 571.152344 190.3125 574.613281 191.410156 C 575.652344 191.738281 579.609375 192.710938 583.410156 193.574219 C 597.171875 196.695312 617.769531 203.152344 628.972656 207.859375 C 645.96875 215 658.339844 226.148438 666.21875 241.414062 C 671.289062 251.242188 673.882812 260.265625 677.03125 279.015625 C 677.894531 284.175781 678.875 289.265625 679.207031 290.324219 C 679.535156 291.386719 680.492188 295.082031 681.332031 298.539062 C 683.984375 309.464844 687.183594 319.679688 691.785156 331.914062 C 696.648438 344.84375 697.328125 348.039062 696.078125 352.128906 C 695.3125 354.640625 695.1875 354.75 694.308594 353.699219 Z M 598.125 341.847656 C 589.007812 340.421875 579.300781 335.914062 571.066406 329.285156 C 563.140625 322.902344 551.417969 308.792969 551.8125 306.109375 C 552.179688 303.605469 568.488281 296.53125 578.699219 294.449219 C 584.445312 293.277344 595.007812 292.957031 600.738281 293.78125 C 615.183594 295.859375 631.203125 304.535156 640.3125 315.214844 C 641.847656 317.015625 643.566406 318.945312 644.132812 319.507812 C 645.304688 320.667969 648.558594 324.96875 651.113281 328.734375 C 652.894531 331.359375 653.355469 333.410156 652.160156 333.410156 C 651.785156 333.410156 649.3125 334.289062 646.664062 335.367188 C 644.011719 336.445312 640.574219 337.699219 639.019531 338.152344 C 637.464844 338.609375 634.949219 339.4375 633.429688 339.996094 C 626.277344 342.617188 608.871094 343.53125 598.125 341.847656 Z M 639.269531 330.367188 C 639.453125 330.078125 637.984375 329.132812 636.007812 328.265625 C 617.214844 320.039062 595.664062 313.054688 595.664062 315.195312 C 595.664062 316.480469 607.714844 323.425781 614.511719 326.058594 C 620.085938 328.21875 620.707031 328.378906 628.289062 329.660156 C 635.867188 330.9375 638.800781 331.125 639.269531 330.367188 Z M 698.523438 335.808594 C 695.722656 329.082031 689.070312 308.101562 686.214844 296.964844 C 674.054688 249.582031 675.429688 215.703125 691.480469 167.214844 C 697.417969 149.277344 698.65625 144.917969 701.019531 133.597656 C 702.894531 124.632812 703.234375 121.617188 703.539062 111.292969 C 703.933594 97.964844 703.386719 91.914062 700.867188 81.644531 C 698.097656 70.355469 692.890625 58.710938 686.167969 48.773438 C 683.34375 44.59375 675.195312 34.671875 673.304688 33.101562 C 672.726562 32.621094 671.9375 31.636719 671.554688 30.917969 C 670.90625 29.699219 670.941406 29.671875 672.058594 30.53125 C 681.9375 38.097656 692.546875 49.65625 697.75 58.511719 C 700.46875 63.140625 704.089844 70.71875 704.953125 73.59375 C 705.371094 74.976562 705.964844 76.671875 706.273438 77.363281 C 708.496094 82.328125 710.601562 97.351562 710.628906 108.464844 C 710.648438 117.335938 709.125 133.019531 707.425781 141.453125 C 704.539062 155.769531 703.699219 159.679688 700.675781 172.871094 C 695.40625 195.863281 694.695312 201.867188 694.671875 223.453125 C 694.652344 242.890625 695.191406 249.085938 698.152344 263.351562 C 700 272.246094 704.359375 287.402344 706.289062 291.625 C 707.289062 293.824219 710.738281 302.214844 711.710938 304.820312 C 713.078125 308.480469 712.464844 311.53125 708.875 318.957031 C 707.117188 322.585938 704.566406 328.234375 703.199219 331.503906 C 701.832031 334.777344 700.417969 337.554688 700.054688 337.675781 C 699.691406 337.796875 699 336.957031 698.523438 335.808594 Z M 797.65625 320.625 C 792.726562 318.257812 784.820312 313.28125 783.546875 311.746094 C 782.816406 310.863281 783.195312 310.257812 786.507812 307.035156 C 796.652344 297.171875 812.0625 294.753906 824.691406 301.039062 C 830.058594 303.710938 837.1875 309.40625 837.453125 311.238281 C 837.601562 312.265625 836.789062 313.160156 833.964844 315.078125 C 825.070312 321.117188 819.992188 322.710938 809.59375 322.722656 C 802.304688 322.726562 801.878906 322.652344 797.65625 320.625 Z M 1063.773438 310.050781 C 1058.847656 308.652344 1053.617188 305.640625 1048.167969 301.066406 C 1045 298.410156 1042.410156 295.859375 1042.410156 295.398438 C 1042.410156 294.074219 1048.140625 290.214844 1052.863281 288.355469 C 1056.679688 286.855469 1058.046875 286.65625 1064.714844 286.628906 C 1071.558594 286.601562 1072.679688 286.765625 1076.835938 288.390625 C 1079.355469 289.378906 1082.890625 291.335938 1084.691406 292.746094 C 1089.046875 296.15625 1094.667969 301.992188 1094.390625 302.824219 C 1093.757812 304.722656 1086.8125 307.882812 1078.855469 309.894531 C 1074.90625 310.894531 1067.027344 310.976562 1063.773438 310.050781 Z M 867.828125 294.375 C 865.980469 294.070312 862.316406 292.957031 859.6875 291.902344 C 855.285156 290.140625 852.703125 288.59375 844.203125 282.625 C 840.105469 279.753906 832.707031 276.414062 827.566406 275.125 C 821.585938 273.625 803.636719 273.683594 797.988281 275.222656 C 791.71875 276.929688 782.21875 280.332031 779.582031 281.8125 C 776.359375 283.621094 776.0625 283.488281 778.234375 281.203125 C 783.019531 276.179688 795.210938 268.375 803.015625 265.339844 C 812.070312 261.820312 816.09375 261.207031 834.429688 260.566406 C 847.40625 260.109375 850.910156 259.773438 856.738281 258.429688 C 866.894531 256.078125 870.28125 255.84375 877.160156 257.019531 C 886.203125 258.5625 891.332031 260.558594 898.277344 265.226562 C 902.488281 268.058594 912.214844 276.476562 913.074219 278.039062 C 913.835938 279.417969 913.722656 279.683594 911.621094 281.496094 C 907.628906 284.9375 899.023438 289.636719 892.867188 291.734375 C 883.4375 294.945312 875.984375 295.730469 867.828125 294.375 Z M 514.609375 286.273438 C 497.585938 284.605469 483.949219 280.136719 469.996094 271.664062 C 463.390625 267.65625 449.40625 254.78125 447.140625 250.625 C 446.808594 250.019531 446.339844 249.386719 446.097656 249.214844 C 445.21875 248.589844 439.847656 239.878906 437.726562 235.636719 C 432.964844 226.101562 428.527344 209.335938 428.527344 200.894531 C 428.527344 197.261719 428.628906 196.988281 430.253906 196.359375 C 432.820312 195.363281 454.574219 196.054688 461.511719 197.355469 C 470.171875 198.972656 482.296875 203.53125 489.472656 207.859375 C 492.835938 209.886719 498.339844 213.585938 499.796875 214.792969 C 502.820312 217.304688 514.28125 228.726562 515.621094 230.566406 C 518.78125 234.90625 521.84375 239.582031 522.898438 241.671875 C 523.507812 242.882812 524.285156 244.296875 524.625 244.816406 C 525.90625 246.777344 528.925781 253.515625 529.988281 256.796875 C 530.597656 258.671875 531.476562 261.058594 531.945312 262.09375 C 532.664062 263.6875 536.019531 277.625 537.054688 283.304688 C 537.648438 286.554688 536.660156 286.921875 527.570312 286.824219 C 523.03125 286.777344 517.199219 286.53125 514.609375 286.273438 Z M 522.363281 277 C 521.269531 276.058594 519.007812 274.304688 517.335938 273.101562 C 508.75 266.933594 501.597656 260.125 474.949219 232.765625 C 467.695312 225.320312 467.230469 226.054688 472.488281 236.644531 C 477.886719 247.515625 480.226562 250.8125 488.140625 258.675781 C 491.8125 262.324219 496.015625 265.980469 497.484375 266.800781 C 498.953125 267.621094 500.15625 268.523438 500.15625 268.808594 C 500.15625 269.089844 500.460938 269.320312 500.835938 269.320312 C 501.210938 269.320312 503.117188 270.257812 505.078125 271.398438 C 507.035156 272.542969 511.183594 274.492188 514.292969 275.726562 C 521.640625 278.648438 521.621094 278.640625 523.089844 278.675781 C 524.160156 278.703125 524.050781 278.453125 522.363281 277 Z M 625.507812 283.363281 C 617.601562 281.71875 612.769531 279.222656 608.304688 274.480469 C 606.445312 272.507812 604.414062 269.757812 603.796875 268.378906 C 602.066406 264.507812 601.167969 258.28125 601.625 253.328125 C 602.246094 246.652344 602.277344 246.585938 604.980469 247.09375 C 610.09375 248.046875 621.09375 253.804688 622.789062 256.417969 C 623.023438 256.773438 624.082031 258.039062 625.144531 259.222656 C 626.210938 260.40625 627.082031 261.601562 627.082031 261.875 C 627.082031 262.148438 627.761719 263.863281 628.59375 265.6875 C 630.09375 268.980469 632.460938 282.0625 631.761719 283.195312 C 631.40625 283.769531 627.90625 283.863281 625.507812 283.363281 Z M 569.273438 272.667969 C 559.554688 268.761719 551.96875 260.289062 549.808594 250.921875 C 549.472656 249.464844 549.195312 245.867188 549.195312 242.929688 C 549.191406 238.484375 549.550781 236.558594 551.320312 231.441406 C 553.605469 224.839844 555.023438 222.1875 556.25 222.210938 C 557.078125 222.226562 561.339844 224.621094 565.292969 227.292969 C 569.523438 230.152344 575.015625 236.65625 577.167969 241.359375 C 580.953125 249.621094 581.488281 256.484375 579.203125 267.59375 L 577.816406 274.347656 L 575.585938 274.328125 C 574.359375 274.320312 571.519531 273.574219 569.273438 272.667969 Z M 1010.507812 259.59375 C 1004.832031 258.710938 996.679688 256.355469 995.457031 255.238281 C 994.574219 254.433594 996.203125 249.765625 1000.191406 241.679688 C 1008.367188 225.105469 1022.378906 210.722656 1037.699219 203.179688 C 1040.117188 201.988281 1043.085938 200.640625 1044.296875 200.1875 C 1045.503906 199.734375 1046.777344 199.15625 1047.125 198.902344 C 1047.46875 198.648438 1051.761719 197.542969 1056.660156 196.453125 C 1065.144531 194.558594 1066.074219 194.476562 1076.136719 194.722656 C 1085.730469 194.957031 1094.320312 196.132812 1100.28125 198.023438 C 1102.003906 198.570312 1101.785156 200.066406 1098.929688 207.28125 C 1091.4375 226.210938 1081.0625 239.539062 1065.707031 249.972656 C 1063.78125 251.28125 1061.886719 252.351562 1061.503906 252.351562 C 1061.117188 252.355469 1060.128906 252.878906 1059.304688 253.523438 C 1058.480469 254.164062 1055.96875 255.332031 1053.71875 256.117188 C 1051.472656 256.902344 1049.109375 257.816406 1048.46875 258.148438 C 1044.160156 260.386719 1021.242188 261.257812 1010.507812 259.59375 Z M 1020.078125 248.175781 C 1023.203125 246.933594 1026.183594 245.566406 1026.703125 245.128906 C 1027.21875 244.695312 1028.632812 243.839844 1029.84375 243.230469 C 1031.054688 242.625 1032.183594 241.941406 1032.355469 241.710938 C 1032.53125 241.484375 1033.660156 240.628906 1034.871094 239.808594 C 1041.035156 235.632812 1056.589844 220.417969 1055.652344 219.480469 C 1055.371094 219.195312 1054.046875 219.550781 1052.710938 220.265625 C 1051.375 220.980469 1049.996094 221.578125 1049.644531 221.59375 C 1048.628906 221.636719 1037.3125 229 1031.414062 233.460938 C 1030.03125 234.503906 1027.839844 236.078125 1026.546875 236.953125 C 1025.25 237.828125 1024.1875 238.78125 1024.1875 239.066406 C 1024.1875 239.351562 1023.550781 239.910156 1022.773438 240.304688 C 1021.996094 240.699219 1019.664062 242.292969 1017.589844 243.851562 C 1015.519531 245.40625 1012.5 247.386719 1010.882812 248.25 C 1009.265625 249.113281 1007.734375 250.148438 1007.484375 250.554688 C 1006.625 251.945312 1014.164062 250.519531 1020.078125 248.175781 Z M 939.992188 258.816406 C 934.183594 257.785156 925.152344 253.335938 920.035156 248.984375 C 916.445312 245.929688 907.945312 236.03125 907.945312 234.902344 C 907.945312 234.585938 907.378906 233.8125 906.683594 233.1875 C 905.992188 232.558594 904.980469 231.171875 904.441406 230.105469 C 903.484375 228.214844 903.507812 228.125 905.230469 226.714844 C 909.261719 223.425781 917.925781 220.550781 926.722656 219.589844 C 941.582031 217.96875 952.28125 221.894531 962.359375 232.671875 C 968.300781 239.027344 974.710938 251.671875 973.101562 253.859375 C 972.453125 254.738281 966.261719 256.613281 957.269531 258.644531 C 954.738281 259.214844 942.90625 259.335938 939.992188 258.816406 Z M 961.355469 247.96875 C 959.140625 246.253906 951.359375 242.074219 945.039062 239.203125 C 938.660156 236.308594 936.851562 235.71875 936.851562 236.550781 C 936.851562 237.285156 943.367188 242.730469 946.355469 244.492188 C 949.410156 246.289062 958.152344 249.128906 960.726562 249.160156 L 962.925781 249.183594 Z M 722.664062 250.355469 C 722.332031 249.488281 721.648438 248.363281 721.140625 247.859375 C 720.632812 247.351562 719.582031 245.679688 718.804688 244.148438 C 718.027344 242.613281 717.195312 241.21875 716.953125 241.042969 C 716.046875 240.398438 711.328125 229.234375 709.917969 224.394531 C 708.644531 220.027344 708.453125 218.003906 708.449219 209 C 708.449219 200.117188 708.65625 197.867188 709.902344 193.292969 C 712.820312 182.589844 718.851562 171.683594 726.324219 163.601562 C 729.675781 159.976562 729.570312 159.917969 736.777344 169.285156 C 738.84375 171.972656 743.097656 180.546875 745.253906 186.378906 C 747.078125 191.3125 747.257812 192.488281 747.5625 201.773438 C 747.945312 213.417969 747.203125 220.21875 744.890625 226.375 C 742.65625 232.3125 739.015625 239.492188 736.511719 242.902344 C 730.378906 251.253906 729.679688 252.113281 729.292969 251.726562 C 729.121094 251.554688 729.398438 248.300781 729.90625 244.5 C 731.074219 235.769531 730.898438 207.003906 729.667969 205.773438 C 729.242188 205.347656 728.746094 205.144531 728.570312 205.320312 C 727.488281 206.40625 726.277344 217.972656 725.066406 238.84375 C 724.378906 250.726562 723.820312 253.394531 722.664062 250.355469 Z M 980.414062 225.808594 C 979.71875 225.03125 978.449219 223.121094 977.59375 221.566406 C 976.742188 220.011719 975.722656 218.171875 975.332031 217.480469 C 971.117188 210.054688 969.519531 203.671875 969.535156 194.351562 C 969.554688 181.761719 972.648438 173.65625 981.4375 163.160156 C 984.613281 159.367188 994.957031 150.5625 996.238281 150.5625 C 996.734375 150.5625 997.734375 151.625 998.449219 152.921875 C 999.167969 154.214844 1000.902344 157.257812 1002.300781 159.675781 C 1005.410156 165.050781 1008.34375 173.757812 1009.125 179.90625 C 1010.730469 192.5625 1004.933594 207.746094 994.671875 217.777344 C 990.570312 221.785156 983.40625 227.222656 982.222656 227.222656 C 981.925781 227.222656 981.109375 226.585938 980.414062 225.808594 Z M 987.144531 213.125 C 989.148438 208.882812 990.085938 204.597656 990.261719 198.898438 C 990.558594 189.179688 989.945312 186.550781 988.410156 190.933594 C 987.058594 194.78125 984.550781 207.425781 984.167969 212.296875 C 983.691406 218.425781 984.527344 218.660156 987.144531 213.125 Z M 841.160156 191.640625 C 828.800781 189.398438 818.101562 180.007812 813.9375 167.742188 C 811.953125 161.894531 811.601562 153.789062 813 146.007812 C 814.304688 138.742188 814.460938 138.625 820.066406 140.765625 C 829.1875 144.25 834.855469 147.414062 838.730469 151.195312 C 846.023438 158.308594 849.601562 167.914062 850.453125 182.671875 C 851.070312 193.386719 851.027344 193.425781 841.160156 191.640625 Z M 881.285156 189.363281 C 880.734375 187.507812 879.367188 164.8125 879.476562 159.359375 C 879.660156 150.121094 881.335938 138.496094 883.433594 131.957031 C 884.472656 128.707031 885.328125 125.804688 885.328125 125.511719 C 885.328125 124.890625 889.734375 115.601562 891.78125 111.90625 C 899.140625 98.621094 912.675781 85.265625 928.683594 75.5 C 930.582031 74.339844 933.074219 72.800781 934.222656 72.078125 C 938.082031 69.648438 938.9375 70.125 941.167969 75.949219 C 952.4375 105.375 950.066406 131.175781 933.96875 154.363281 C 924.367188 168.183594 908.746094 179.828125 890.039062 187.101562 C 888.3125 187.773438 886.007812 188.734375 884.917969 189.234375 C 882.492188 190.355469 881.585938 190.386719 881.285156 189.363281 Z M 896.730469 175.699219 C 906.539062 166.949219 912.484375 159.203125 916.023438 150.5625 C 916.800781 148.664062 917.691406 146.542969 918.003906 145.851562 C 919.601562 142.289062 920.773438 133.457031 920.773438 124.984375 C 920.769531 113.65625 919.964844 112.5 917.589844 120.402344 C 916.304688 124.683594 911.667969 138.167969 909.59375 143.652344 C 906.472656 151.90625 903.476562 157.773438 893.96875 174.238281 C 892.738281 176.375 891.875 178.269531 892.054688 178.449219 C 892.398438 178.789062 894.933594 177.296875 896.730469 175.699219 Z M 622.6875 183.558594 C 622.082031 182.828125 621.964844 180.253906 622.214844 173.019531 C 622.503906 164.664062 622.789062 162.675781 624.453125 157.394531 C 627.34375 148.207031 630.316406 143.046875 636.480469 136.5 C 640.394531 132.34375 644.910156 128.820312 649.085938 126.660156 C 654 124.121094 663.144531 120.539062 663.9375 120.84375 C 664.355469 121.003906 665.339844 123.726562 666.121094 126.894531 C 668.84375 137.941406 667.585938 151.171875 663.144531 158.207031 C 662.316406 159.519531 661.640625 160.828125 661.640625 161.113281 C 661.640625 162.878906 650.445312 174.210938 646.304688 176.636719 C 642.59375 178.8125 635.417969 181.542969 629.90625 182.878906 C 627.488281 183.464844 625.054688 184.074219 624.5 184.234375 C 623.941406 184.390625 623.128906 184.089844 622.6875 183.558594 Z M 634.84375 172.160156 C 636.53125 170.753906 639.382812 167.59375 643.15625 162.953125 C 644.148438 161.734375 646.855469 155.035156 647.449219 152.332031 C 648.214844 148.84375 646.457031 150.050781 642.976562 155.402344 C 641 158.441406 638.945312 161.679688 638.414062 162.59375 C 636.683594 165.570312 633.339844 170.953125 632.320312 172.398438 C 630.921875 174.382812 632.34375 174.25 634.84375 172.160156 Z M 580.582031 177.5 C 568.390625 176.511719 555.199219 173.277344 546.683594 169.191406 C 528.035156 160.242188 514.421875 144.5625 508.390625 125.09375 C 506.292969 118.324219 504.863281 107.71875 505.8125 105.949219 C 506.542969 104.585938 514.011719 103.886719 521.921875 104.441406 C 528.601562 104.90625 541.007812 107.851562 546.652344 110.304688 C 548.898438 111.28125 551.160156 112.257812 551.679688 112.472656 C 552.550781 112.832031 555.785156 114.914062 562.324219 119.324219 C 569.929688 124.457031 580.035156 136.855469 584.972656 147.109375 C 588.128906 153.667969 591.976562 165.578125 593.179688 172.527344 C 594.226562 178.589844 594.1875 178.605469 580.582031 177.5 Z M 583.351562 170.765625 C 583.535156 170.46875 582.273438 169.3125 580.550781 168.195312 C 574.820312 164.484375 569.078125 159.394531 556.359375 146.75 C 549.429688 139.863281 543.417969 134.226562 543.007812 134.226562 C 541.921875 134.226562 542.058594 135.058594 543.855469 139.320312 C 549.199219 152.023438 564.453125 165.503906 578.699219 170.113281 C 582.789062 171.4375 582.925781 171.457031 583.351562 170.765625 Z M 1032.035156 169.886719 C 1031.878906 169.453125 1031.332031 165.636719 1030.816406 161.40625 C 1029.878906 153.699219 1030.167969 147.210938 1031.6875 141.914062 C 1032.628906 138.632812 1036.519531 132.714844 1039.46875 130.074219 C 1043.859375 126.144531 1044.945312 125.355469 1049.609375 122.707031 C 1055.128906 119.574219 1059.042969 118.292969 1059.890625 119.347656 C 1060.847656 120.53125 1062.105469 133.21875 1061.695312 137.523438 C 1060.960938 145.214844 1058.082031 150.898438 1052.148438 156.375 C 1048.957031 159.324219 1042.21875 164.695312 1039.035156 166.832031 C 1037.6875 167.734375 1035.847656 168.964844 1034.941406 169.566406 C 1032.988281 170.871094 1032.414062 170.933594 1032.035156 169.886719 Z M 460.886719 156.785156 C 448.992188 154.273438 441.378906 148.585938 436.910156 138.882812 C 434.835938 134.378906 432.925781 126.476562 432.925781 122.410156 L 432.925781 118.960938 L 438.386719 119.382812 C 444.667969 119.863281 453.519531 122.617188 458.371094 125.597656 C 462.742188 128.28125 467.179688 132.660156 469.667969 136.742188 C 472.339844 141.125 476.207031 151.226562 476.703125 155.121094 L 477.082031 158.105469 L 471.8125 158.042969 C 468.914062 158.007812 463.996094 157.441406 460.886719 156.785156 Z M 852.984375 131.558594 C 851.679688 125.820312 851.425781 124.03125 851.410156 120.566406 C 851.386719 114.390625 855.445312 105.65625 860.179688 101.695312 C 863.308594 99.078125 866.78125 97.027344 868.574219 96.734375 C 870.632812 96.402344 870.640625 96.414062 871.855469 100.390625 C 873.597656 106.101562 873.480469 113.421875 871.578125 117.691406 C 870.0625 121.09375 864.222656 127.164062 860.203125 129.515625 C 853.421875 133.484375 853.421875 133.484375 852.984375 131.558594 Z M 740.523438 128.214844 C 739.941406 127.324219 739.097656 125.558594 738.648438 124.285156 C 738.195312 123.015625 737.242188 120.703125 736.527344 119.148438 C 732.507812 110.398438 727.308594 96.078125 725.46875 88.671875 C 723.179688 79.488281 722.242188 66.980469 723.167969 58.117188 C 724.183594 48.414062 729.164062 32.351562 732.722656 27.3125 C 733.367188 26.394531 733.898438 25.390625 733.898438 25.082031 C 733.898438 24.59375 735.304688 22.398438 741.273438 13.585938 C 742.59375 11.636719 747.359375 5.84375 750.050781 2.917969 L 752.070312 0.726562 L 754.359375 2.914062 C 758.359375 6.734375 770.339844 23.472656 770.339844 25.238281 C 770.339844 25.460938 770.859375 26.394531 771.492188 27.3125 C 773.269531 29.894531 777.15625 40.429688 778.128906 45.316406 C 780.835938 58.882812 780.785156 64.859375 777.84375 78.546875 C 775.605469 88.953125 770.222656 100.636719 763.617188 109.410156 C 759.160156 115.328125 748.136719 126.453125 744.445312 128.761719 C 742.183594 130.175781 741.773438 130.117188 740.523438 128.214844 Z M 750.414062 108.605469 C 754.808594 96.714844 756.984375 81.878906 755.917969 71.078125 C 755.183594 63.683594 753.113281 51.445312 752.488281 50.816406 C 751.675781 50.003906 751.039062 52 750.652344 56.597656 C 750.4375 59.113281 749.703125 64.675781 749.019531 68.953125 C 748.285156 73.550781 747.507812 83.035156 747.128906 92.128906 C 746.773438 100.597656 746.339844 109.644531 746.167969 112.234375 L 745.855469 116.949219 L 747.238281 115.203125 C 748 114.242188 749.429688 111.273438 750.414062 108.605469 Z M 598.988281 120.5625 C 594.464844 116.113281 588.59375 109.414062 586.519531 106.335938 C 584.53125 103.386719 584.453125 103.261719 582.582031 99.972656 C 580.273438 95.914062 577.046875 87.128906 576.242188 82.703125 C 573.027344 65.011719 576.511719 48.257812 586.660156 32.621094 C 587.828125 30.824219 589.074219 29.167969 589.433594 28.949219 C 591.707031 27.542969 607.429688 43.363281 611.941406 51.601562 C 612.699219 52.984375 613.722656 54.820312 614.21875 55.683594 C 616.121094 59.011719 618.464844 65.621094 619.34375 70.136719 C 620.007812 73.550781 620.183594 77.710938 619.984375 85.21875 C 619.714844 95.335938 619.652344 95.730469 617.410156 101.554688 C 615.160156 107.40625 611.894531 114.769531 610.71875 116.632812 C 610.394531 117.152344 609.527344 118.707031 608.792969 120.089844 C 607.003906 123.453125 605.75 124.800781 604.410156 124.800781 C 603.800781 124.800781 601.359375 122.894531 598.988281 120.5625 Z M 603.191406 108.9375 C 603.175781 100.433594 602.214844 92.363281 599.988281 82.074219 C 598.046875 73.085938 597.3125 71.078125 596.21875 71.753906 C 595.441406 72.234375 595.523438 85.976562 596.351562 93.277344 C 596.730469 96.621094 597.886719 102.183594 598.925781 105.636719 C 602.253906 116.71875 603.207031 117.457031 603.191406 108.9375 Z M 978.089844 119.933594 C 976.082031 109.441406 978.023438 102.386719 984.753906 95.726562 C 987.167969 93.339844 992.941406 90.5625 994.359375 91.105469 C 994.78125 91.269531 995.621094 93.429688 996.230469 95.90625 C 998.667969 105.847656 995.59375 112.691406 986.175781 118.308594 C 983.648438 119.816406 979.476562 121.660156 978.589844 121.660156 C 978.496094 121.660156 978.269531 120.882812 978.089844 119.933594 Z M 663.804688 91.414062 C 652.035156 85.238281 646.457031 78.628906 645.554688 69.777344 C 645.132812 65.644531 647.234375 55.066406 648.722656 53.828125 C 651.082031 51.871094 665.332031 62.007812 668.304688 67.757812 C 670.390625 71.789062 671.050781 75.472656 670.984375 82.703125 C 670.910156 90.492188 670.503906 93.46875 669.460938 93.816406 C 669.097656 93.9375 666.554688 92.855469 663.804688 91.414062 Z M 549.136719 86.582031 C 543.179688 84.390625 538.003906 80.335938 535.863281 76.183594 C 534.355469 73.257812 533.769531 68.382812 534.355469 63.679688 C 535.09375 57.78125 535.414062 57.667969 542.027344 60.980469 C 548.925781 64.433594 552.40625 67.890625 553.835938 72.703125 C 554.847656 76.105469 555.125 82.277344 554.429688 85.765625 C 553.980469 88.019531 553.320312 88.121094 549.136719 86.582031 Z M 872.964844 61.597656 C 872.441406 60.238281 874.339844 52.59375 876.417969 47.703125 C 881.414062 35.929688 888.710938 28.882812 899.097656 25.796875 C 903.140625 24.597656 912.914062 23.707031 917.601562 24.117188 L 921.289062 24.4375 L 920.90625 27.242188 C 920.367188 31.179688 916.351562 40.878906 913.519531 45.089844 C 909.195312 51.519531 901.84375 56.746094 894.253906 58.792969 C 892.289062 59.320312 883.441406 60.875 874.753906 62.214844 C 873.929688 62.34375 873.148438 62.074219 872.964844 61.597656 Z M 816.347656 58.984375 C 816.097656 58.378906 815.894531 54.914062 815.894531 51.285156 C 815.894531 45.195312 816.046875 44.371094 817.867188 40.527344 C 820.179688 35.648438 823.414062 31.859375 827.089844 29.726562 C 831.652344 27.074219 832.378906 27.046875 833.390625 29.46875 C 833.878906 30.640625 834.636719 33.597656 835.074219 36.042969 C 836.589844 44.53125 833.976562 49.757812 824.691406 56.800781 C 824.347656 57.0625 823.25 57.90625 822.25 58.679688 C 820.050781 60.382812 816.984375 60.539062 816.347656 58.984375 Z M 816.347656 58.984375 " fill-opacity="1" fill-rule="nonzero"/></svg>